<?xml version="1.0" encoding="UTF-8" standalone="no"?>
<!-- Created with Inkscape (http://www.inkscape.org/) -->

<svg
   width="32.511997mm"
   height="34.687462mm"
   viewBox="0 0 32.511997 34.687462"
   version="1.1"
   id="svg5"
   xml:space="preserve"
   inkscape:version="1.2.1 (9c6d41e410, 2022-07-14)"
   sodipodi:docname="kaffeknoppen-logo.svg"
   xmlns:inkscape="http://www.inkscape.org/namespaces/inkscape"
   xmlns:sodipodi="http://sodipodi.sourceforge.net/DTD/sodipodi-0.dtd"
   xmlns="http://www.w3.org/2000/svg"
   xmlns:svg="http://www.w3.org/2000/svg"><sodipodi:namedview
     id="namedview7"
     pagecolor="#ffffff"
     bordercolor="#666666"
     borderopacity="1.0"
     inkscape:showpageshadow="2"
     inkscape:pageopacity="0.0"
     inkscape:pagecheckerboard="0"
     inkscape:deskcolor="#d1d1d1"
     inkscape:document-units="mm"
     showgrid="false"
     inkscape:zoom="1.4142136"
     inkscape:cx="34.648232"
     inkscape:cy="551.54329"
     inkscape:window-width="1920"
     inkscape:window-height="1009"
     inkscape:window-x="-8"
     inkscape:window-y="-8"
     inkscape:window-maximized="1"
     inkscape:current-layer="g2005"><inkscape:grid
       type="xygrid"
       id="grid3255" /></sodipodi:namedview><defs
     id="defs2" /><g
     inkscape:label="Lager 1"
     inkscape:groupmode="layer"
     id="layer1"
     transform="translate(-16.224472,-98.680394)"><g
       id="g3369"><g
         id="g2005"
         transform="matrix(0.01271907,0,0,0.01761465,26.077794,98.560548)"
         style="stroke-width:17.6766">
	
	
	
	
<g
   id="g1008"
   inkscape:export-filename="..\..\source\repos\Frontend\Övning8\imgs\kaffeknoppen-logo.svg"
   inkscape:export-xdpi="96"
   inkscape:export-ydpi="96"
   style="stroke:none"><path
     d="m -774.6889,1976.0434 c 79.25595,-476.3046 -7.90483,-414.5697 766.3492716,-564.3257 C 90.886338,1733.61 1000.354,1717.2378 1015.3315,1392.9419 c 820.2267,158.7684 706.2313,101.5399 766.1413,583.1015 z"
     id="path1989"
     style="fill:#000000;fill-opacity:1;stroke:none;stroke-width:31.0662;stroke-dasharray:none;stroke-opacity:1"
     sodipodi:nodetypes="ccccc" /><path
     id="path1997"
     style="fill:#ffffff;fill-opacity:1;stroke:none;stroke-width:31.0662;stroke-dasharray:none;stroke-opacity:1"
     d="m 114.92451,704.04509 c -30.767472,0 -55.964733,25.19716 -55.964733,55.96473 v 52.80543 c -32.180234,-19.32242 -69.856209,-30.46467 -110.124145,-30.46467 -118.316452,0 -158.371162,101.97671 -158.371162,220.29342 0,118.3167 40.0548,208.1978 158.371162,208.1978 41.9688047,0 81.135833,-12.1368 114.186102,-32.9921 -1.662151,-12.7914 -2.651783,-25.7367 -2.888503,-38.9045 3.323102,190.527 159.083899,345.6725 350.366289,345.6725 h 191.00221 c 178.13982,0 326.42966,-134.2877 348.65124,-306.6326 33.17156,21.0805 72.51373,33.3081 114.72773,33.3081 118.3165,0 158.3711,-89.8362 158.3711,-208.1527 0,-118.31659 -40.0545,-220.29336 -158.3711,-220.29346 -40.9996,0 -79.27857,11.52695 -111.83923,31.50273 v -54.33995 c 0,-30.76757 -25.19716,-55.96473 -55.96473,-55.96473 -260.72534,16.60788 -521.42669,16.60788 -782.15223,0 z M -51.164368,850.54631 c 43.9318763,0 83.343358,19.36113 110.124145,50.05233 v 191.94996 c -26.781021,30.6963 -66.1883181,50.0975 -110.124145,50.0975 -80.682722,0 -90.220562,-59.319 -90.220562,-140.0021 0,-80.68307 9.53775,-152.09769 90.220562,-152.09769 z m 1116.045068,0.45133 c 80.683,0 90.2657,71.45984 90.2657,152.14286 0,80.6831 -9.5828,140.0021 -90.2657,140.0021 -44.9025,0 -85.04066,-20.2533 -111.83923,-52.1285 V 903.12608 c 26.79847,-31.87517 66.93663,-52.12844 111.83923,-52.12844 z" /><path
     d="m 373.02675,717.0964 c 0,0 0.4616,-0.5204 1.3559,-1.5286 0.4472,-0.5042 1.0025,-1.1302 1.6624,-1.8742 0.6513,-0.7534 1.3534,-1.6492 2.1733,-2.6287 3.2127,-3.9729 7.723,-9.9868 12.1947,-18.1189 4.4285,-8.1495 8.8345,-18.4444 11.6925,-30.587 1.3843,-6.0757 2.5239,-12.5549 2.9698,-19.3924 0.2437,-3.413 0.3297,-6.9031 0.326,-10.4464 -0.0927,-3.5483 -0.2547,-7.1519 -0.707,-10.7837 -0.3821,-3.6355 -1.0334,-7.2861 -1.7624,-10.9502 -0.8758,-3.6381 -1.7355,-7.3164 -3.0068,-10.9089 -0.2768,-0.9095 -0.6064,-1.8041 -0.9546,-2.6938 -0.3355,-0.8906 -0.6723,-1.7848 -1.0103,-2.6826 -0.7638,-1.7571 -1.4502,-3.5505 -2.326,-5.2694 -0.7881,-1.7572 -1.7453,-3.4395 -2.642,-5.1519 l -0.1684,-0.3211 c 0.0689,0.1509 -0.2729,-0.5646 0.1331,0.2977 l -0.1098,-0.1888 -0.4399,-0.756 -0.8824,-1.5161 c -0.5891,-1.0125 -1.1805,-2.0286 -1.7737,-3.0482 l -0.4421,-0.7491 -0.4081,-0.5817 -0.8116,-1.1653 c -0.5315,-0.7784 -1.0647,-1.5594 -1.5996,-2.343 l -0.3956,-0.592 -0.4721,-0.6397 -0.9438,-1.2817 c -0.6268,-0.8549 -1.2555,-1.7126 -1.8862,-2.5729 -1.2918,-1.7136 -2.712,-3.4135 -4.0628,-5.1334 -1.3964,-1.7208 -2.8903,-3.4384 -4.3349,-5.1703 -5.9811,-6.9044 -12.6739,-13.926 -19.7406,-21.4159 -7.0613,-7.4904 -14.4717,-15.483 -21.7247,-24.4717 l -2.7034,-3.3998 -2.652,-3.5599 c -0.878,-1.2026 -1.7804,-2.3633 -2.6391,-3.6093 l -2.5651,-3.7686 -1.281,-1.8928 -0.3176,-0.4756 -0.5876,-0.9701 -0.5202,-0.8593 -2.0839,-3.4422 -1.0436,-1.724 c -0.1648,-0.2573 -0.3637,-0.6257 -0.5633,-0.9986 l -0.591,-1.0961 -2.3482,-4.4066 -1.1639,-2.2156 c -0.3599,-0.7232 -0.6692,-1.4161 -1.0057,-2.1269 l -1.9568,-4.2582 -0.9666,-2.1385 -0.8693,-2.1775 -1.7298,-4.3673 c -0.6012,-1.45 -1.0994,-2.9342 -1.5982,-4.4203 l -1.5051,-4.4604 c -0.9849,-2.9823 -1.7252,-6.0366 -2.5853,-9.0628 -3.1495,-12.1783 -4.9344,-24.746 -5.3362,-37.3791 -0.3519,-12.6312 0.6114,-25.3351 3.0808,-37.7514 1.2234,-6.2307 2.7585,-12.3064 4.7243,-18.4143 l 1.2938,-3.9253 1.6796,-4.6234 0.8494,-2.2963 0.8595,-2.1112 1.7423,-4.2038 c 2.4415,-5.4899 4.9699,-10.8761 7.6832,-15.9851 2.6991,-5.1527 5.539,-10.0513 8.3719,-14.8693 5.7441,-9.5379 11.6122,-18.4798 17.3156,-27.018 2.8059,-4.2154 5.5882,-8.3957 8.3444,-12.5365 0.675,-1.0245 1.3485,-2.0466 2.0203,-3.0661 0.6531,-1.0132 1.3046,-2.0239 1.9545,-3.032 0.6679,-1.0342 1.3341,-2.0657 1.9985,-3.0945 0.6162,-0.9735 1.2308,-1.9445 1.8438,-2.9128 1.2395,-1.9127 2.4168,-3.9458 3.6214,-5.8999 1.1645,-1.9715 2.3222,-3.9316 3.4729,-5.8799 1.0824,-1.9577 2.1965,-3.9023 3.2394,-5.8447 0.9904,-1.9504 2.0957,-3.8677 3.0292,-5.7992 7.787,-15.4035 12.9329,-30.4522 14.6645,-44.7363 0.2954,-1.7905 0.384,-3.5541 0.5186,-5.3134 0.0649,-0.8146 0.1297,-1.6246 0.1941,-2.4302 0.008,-0.9758 0.0153,-1.9462 0.023,-2.9109 -0.003,-0.7557 -0.007,-1.507 -0.0103,-2.2538 -0.0449,-0.8295 -0.0897,-1.6541 -0.1341,-2.4737 -0.1441,-1.6388 -0.2659,-3.2776 -0.4828,-4.8928 -0.4134,-3.2327 -1.0354,-6.3899 -1.8201,-9.4372 -0.7969,-3.0443 -1.7884,-5.9575 -2.8323,-8.7755 -2.1178,-5.6325 -4.875,-10.624 -7.7666,-15.0643 -2.9481,-4.3969 -6.1579,-8.1565 -9.3956,-11.2533 -6.5065,-6.1809 -13.0353,-9.7387 -17.7255,-11.627 -1.1687,-0.5056 -2.232,-0.8704 -3.1568,-1.195 -0.9217,-0.3463 -1.713,-0.5931 -2.3571,-0.7644 -1.2937,-0.3718 -1.9613,-0.5637 -1.9613,-0.5637 0,0 0.6948,-0.0524 2.0408,-0.1539 0.6795,-0.0643 1.5229,-0.1093 2.5291,-0.1054 1.0115,-0.0298 2.1861,-0.0236 3.513,0.0835 2.6683,0.1335 5.9801,0.5535 9.8094,1.5504 3.8396,0.9622 8.188,2.5367 12.8011,4.9415 9.2292,4.7586 19.4214,13.0932 27.8447,25.3841 4.244,6.1193 7.9128,13.2602 10.8074,21.3002 0.7291,2.0092 1.3785,4.0854 1.9628,6.2162 0.2705,1.0743 0.5428,2.1551 0.8167,3.2424 0.24,1.181 0.4815,2.3689 0.7243,3.5638 0.1818,0.9934 0.3647,1.9926 0.5486,2.9974 l 0.0669,0.3688 c -0.007,-0.1741 0.0474,0.4416 0.0503,0.4574 l 0.0254,0.2092 0.1014,0.839 0.2018,1.6883 c 0.2671,2.2602 0.5692,4.5599 0.6531,6.877 0.6024,9.2943 0.0267,19.0192 -1.5728,28.7831 -1.5962,9.7711 -4.2069,19.583 -7.5655,29.2553 -3.3541,9.7024 -7.4189,19.1963 -12.0202,28.6373 -0.5848,1.1936 -1.1711,2.3905 -1.7591,3.5905 -0.5662,1.1298 -1.1339,2.2626 -1.703,3.3982 -0.5966,1.1564 -1.1946,2.3157 -1.7941,3.4778 -0.6035,1.1425 -1.2087,2.2878 -1.8153,3.4359 -2.4267,4.5949 -4.886,9.1304 -7.3856,13.6494 -4.9462,9.0277 -9.9258,17.9388 -14.5172,26.8467 -2.2695,4.4391 -4.5128,8.887 -6.514,13.3353 -2.1035,4.435 -3.9264,8.877 -5.6752,13.3235 l -1.2116,3.3349 -0.6195,1.6635 -0.5014,1.5299 -1.0157,3.0425 -1.1301,3.8438 -0.5694,1.9561 -0.1425,0.4892 c 0.2486,-0.8255 0.0413,-0.1093 0.0843,-0.2396 l -0.0484,0.2082 -0.1941,0.8327 -0.7966,3.3259 -0.4135,1.6598 c -0.1251,0.557 -0.2136,1.1243 -0.3233,1.6858 l -0.6384,3.3757 c -1.5609,9.0338 -2.2654,18.3049 -1.9578,27.5763 0.2326,9.2737 1.5148,18.5314 3.6044,27.5387 0.6057,2.2288 1.0845,4.4966 1.7634,6.6984 l 0.9996,3.3077 c 0.3256,1.1052 0.6461,2.2121 1.0624,3.2814 l 1.1628,3.2402 0.5753,1.6218 0.663,1.5811 1.3168,3.1637 0.6455,1.571 0.6622,1.3954 1.2983,2.8046 0.3194,0.7043 c 0.1005,0.2289 0.2033,0.4612 0.3859,0.7797 l 0.9647,1.7694 1.9264,3.5327 0.4809,0.8819 0.1202,0.2204 c 0.3217,0.5499 -0.3026,-0.4986 -0.1976,-0.3263 l 0.2252,0.3684 0.8883,1.4807 1.7657,2.9656 c 0.5935,0.9887 1.278,1.968 1.9099,2.9527 l 1.9331,2.9507 2.0759,2.9411 c 5.504,7.8765 11.7534,15.7046 18.1176,23.7581 6.3667,8.0483 12.9004,16.3125 18.9473,25.108 1.4967,2.2405 3.0028,4.4202 4.4536,6.6721 1.4114,2.3126 2.8457,4.5504 4.1945,6.8809 0.6624,1.1799 1.3227,2.3563 1.981,3.5289 l 0.9807,1.7549 0.488,0.8751 0.4908,0.9636 c 0.6419,1.2912 1.2819,2.5782 1.9197,3.861 l 0.9395,1.9213 0.4652,0.9578 0.3507,0.8297 c 0.9839,2.3698 1.9608,4.7236 2.9311,7.0604 0.9458,2.5488 1.8592,5.0802 2.5999,7.6371 0.8241,2.531 1.4212,5.0965 2.0727,7.6139 0.2982,1.2655 0.5431,2.5362 0.8009,3.7959 0.2647,1.2585 0.5042,2.5137 0.684,3.7725 0.8819,5.0077 1.2861,9.9633 1.5456,14.7938 0.1258,4.8386 0.1621,9.5608 -0.2543,14.1465 -1.3097,18.3688 -6.5059,34.3346 -12.8936,47.2282 -6.4504,12.9208 -14.1722,22.7947 -21.2522,29.9437 -3.5663,3.565 -6.8987,6.5372 -9.991,8.8716 -0.7619,0.5891 -1.4954,1.1563 -2.1997,1.7009 -0.7298,0.5106 -1.4297,1.0002 -2.0988,1.4683 -0.6698,0.4594 -1.3089,0.8976 -1.917,1.3146 -0.6288,0.3936 -1.2256,0.767 -1.7892,1.1199 -2.2272,1.4427 -3.9949,2.3474 -5.1866,2.9832 -1.1878,0.637 -1.8008,0.9658 -1.8008,0.9658 z"
     id="path1999"
     style="fill:#ffffff;fill-opacity:1;stroke:none;stroke-width:17.7044;stroke-dasharray:none;stroke-opacity:1" /><path
     d="m 623.39305,700.04381 c 0,0 -0.23241,-0.45838 -0.68282,-1.34649 -0.44627,-0.88986 -1.12986,-2.20144 -1.97242,-3.93234 -0.85494,-1.7262 -1.89985,-3.85993 -3.09184,-6.38582 -1.20181,-2.52353 -2.55376,-5.43796 -4.00544,-8.73914 -1.48338,-3.28945 -3.00952,-6.98594 -4.61865,-11.05259 -1.62953,-4.06119 -3.19692,-8.54121 -4.75656,-13.40351 -1.5615,-4.863 -2.96086,-10.14788 -4.18428,-15.83031 -0.15046,-0.71163 -0.30169,-1.42779 -0.45385,-2.14852 -0.13109,-0.73029 -0.26301,-1.46516 -0.39585,-2.20455 -0.12412,-0.70525 -0.24905,-1.4148 -0.3748,-2.12861 -0.10906,-0.76935 -0.21894,-1.54322 -0.32941,-2.32168 -0.10704,-0.78086 -0.21451,-1.56619 -0.32275,-2.356 -0.085,-0.77725 -0.1706,-1.55888 -0.25653,-2.34481 -0.19132,-1.57186 -0.30393,-3.17182 -0.42406,-4.79197 -0.45243,-6.48097 -0.38331,-13.3316 0.41124,-20.45584 0.21435,-1.77912 0.40252,-3.58252 0.74889,-5.38586 0.16122,-0.9029 0.2987,-1.81393 0.48495,-2.72272 0.19738,-0.90836 0.39553,-1.82026 0.5945,-2.73571 l 0.30294,-1.37754 0.364,-1.37311 c 0.24572,-0.9184 0.49237,-1.84017 0.73983,-2.76528 0.26727,-0.9215 0.57595,-1.83804 0.86635,-2.76358 0.30044,-0.92287 0.5748,-1.85828 0.93711,-2.77237 0.6874,-1.83908 1.35986,-3.70467 2.20738,-5.52394 0.42107,-0.90934 0.78981,-1.84628 1.26384,-2.74193 0.46166,-0.90235 0.92473,-1.80749 1.38922,-2.71546 l 0.35095,-0.68157 0.088,-0.17054 0.24114,-0.40061 0.16929,-0.29274 0.679,-1.17317 c 0.45783,-0.78719 0.91697,-1.57672 1.37748,-2.36849 0.60082,-0.90983 1.20339,-1.82228 1.80755,-2.73729 l 0.91883,-1.37186 c 0.30835,-0.46553 0.61555,-0.84436 0.92488,-1.27164 0.62052,-0.83171 1.24257,-1.6657 1.86641,-2.50188 0.6173,-0.84562 1.30902,-1.6148 1.96576,-2.42878 0.67093,-0.79662 1.32484,-1.62516 2.03412,-2.38747 0.70797,-0.76624 1.41774,-1.53433 2.12904,-2.30428 0.70339,-0.78386 1.44786,-1.51403 2.19408,-2.24797 0.74648,-0.7352 1.49494,-1.47208 2.24497,-2.21061 0.77442,-0.70246 1.55042,-1.40656 2.32834,-2.11213 0.77791,-0.70917 1.56537,-1.40743 2.37721,-2.06576 6.41256,-5.42427 13.35747,-10.22737 20.57003,-14.49004 3.60451,-2.1578 7.28785,-4.12775 10.99601,-6.0772 0.93138,-0.46896 1.86368,-0.93858 2.79724,-1.40874 l 1.47247,-0.73252 1.34911,-0.65113 2.70799,-1.30547 2.85147,-1.33383 c 15.00686,-6.95604 29.96373,-12.85752 43.5787,-19.94171 3.41918,-1.74889 6.7185,-3.59408 9.93288,-5.51685 l 2.38508,-1.46352 0.29836,-0.1826 c -0.0368,0.0251 0.29264,-0.18521 -0.0446,0.0333 l 0.15914,-0.10513 0.63781,-0.41893 1.27743,-0.83443 c 1.84055,-1.16455 3.05218,-2.09348 4.49371,-3.08978 5.79046,-4.27281 11.24015,-9.02867 15.79311,-14.23706 9.24013,-10.38003 14.93664,-22.47954 15.63256,-34.76716 0.17267,-3.08465 0.0615,-6.19559 -0.31119,-9.29114 -0.38129,-3.09414 -1.01747,-6.17311 -1.87181,-9.2002 -0.8616,-3.02518 -1.95168,-5.99296 -3.20931,-8.88306 -1.26318,-2.88857 -2.72195,-5.6833 -4.29175,-8.39397 -3.15414,-5.41805 -6.9143,-10.37969 -10.95116,-14.86146 -2.01682,-2.24476 -4.11641,-4.36114 -6.27273,-6.34359 -0.54158,-0.49248 -1.07311,-0.99461 -1.62767,-1.46177 -0.51523,-0.44513 -1.02795,-0.88817 -1.53804,-1.32899 -1.2256,-0.96956 -2.42932,-1.94328 -3.61799,-2.91088 -4.36627,-3.43686 -9.10586,-6.57835 -13.66286,-9.38568 -4.56142,-2.84591 -9.14275,-5.20398 -13.45992,-7.45932 -8.70461,-4.3875 -16.62831,-7.80968 -23.19084,-10.59906 -6.61059,-2.75268 -11.80453,-4.91549 -15.3458,-6.39019 -3.54886,-1.50045 -5.44157,-2.30068 -5.44157,-2.30068 0,0 0.50889,0.0722 1.49477,0.21201 0.98512,0.14397 2.45251,0.33606 4.35406,0.63541 1.90301,0.29793 4.25372,0.6466 7.00486,1.12996 2.75862,0.452 5.91844,1.03236 9.45776,1.72113 7.07775,1.38616 15.65808,3.29943 25.41584,6.28026 1.22276,0.3605 2.45392,0.779 3.70663,1.19188 1.25173,0.4173 2.52556,0.8371 3.80189,1.32112 1.28207,0.47273 2.58263,0.95222 3.90102,1.43832 1.30902,0.52771 2.63571,1.06258 3.97975,1.60443 5.37119,2.25698 10.8373,4.91538 16.63829,8.28186 1.31376,0.78958 2.63827,1.59128 3.96643,2.41497 l 0.24965,0.15374 0.12493,0.0769 0.27109,0.18849 0.52679,0.35379 1.058,0.71158 c 0.71343,0.4688 1.40367,0.97393 2.10608,1.47241 2.79953,2.00634 5.56317,4.18503 8.26647,6.54348 5.40049,4.724 10.47697,10.24276 15.08039,16.49721 2.30313,3.12775 4.43616,6.47535 6.38675,10.01865 1.95517,3.54094 3.69965,7.29494 5.17746,11.24522 1.48496,3.94701 2.69141,8.09707 3.53064,12.41206 0.84453,4.31172 1.34257,8.78874 1.36226,13.34836 -0.0194,1.15347 -0.013,2.25343 -0.0663,3.46113 l -0.11594,1.86581 c -0.0411,0.61457 -0.0849,1.30029 -0.13442,1.71731 l -0.14425,1.43973 -0.0723,0.7209 -0.10622,0.69292 -0.0712,0.42777 c -0.19482,1.14153 -0.39013,2.28518 -0.58593,3.43091 -0.16836,1.15582 -0.49542,2.26614 -0.76062,3.39954 -0.29438,1.12254 -0.52963,2.27438 -0.8868,3.37777 -0.72129,2.2027 -1.37607,4.45815 -2.30406,6.58201 -1.6771,4.35181 -3.86643,8.43728 -6.21032,12.41534 -1.2454,1.92718 -2.45468,3.90631 -3.83167,5.72946 -0.67901,0.92035 -1.3285,1.87688 -2.04045,2.76723 l -2.14552,2.66953 c -0.70513,0.90558 -1.47039,1.73974 -2.22659,2.59053 -0.76411,0.84011 -1.50536,1.71322 -2.29516,2.52507 -1.58884,1.6106 -3.14973,3.27237 -4.82335,4.78406 -3.27428,3.14602 -6.75576,5.95117 -10.3654,8.71263 -7.25227,5.42264 -14.8171,9.90271 -22.49693,13.88534 -15.3613,7.93958 -30.91415,13.74814 -45.21145,19.88503 l -2.63587,1.1263 -2.74007,1.21087 -1.36973,0.60617 -1.22511,0.56154 -2.58529,1.18179 c -3.40369,1.6112 -6.77819,3.232 -10.0019,4.98363 -6.51566,3.42098 -12.59035,7.19854 -18.13721,11.30049 -5.57823,4.08023 -10.44118,8.63565 -14.68028,13.46194 -0.25685,0.29711 -0.55947,0.60775 -0.77933,0.89253 l -0.6855,0.85882 c -0.46388,0.57005 -0.92646,1.13858 -1.38763,1.70542 -0.51871,0.74108 -1.03585,1.47999 -1.55151,2.21676 l -0.77475,1.11218 -0.1934,0.27753 c 0.0375,-0.0672 -0.22084,0.34621 0.0601,-0.1155 l -0.0769,0.12412 -0.3077,0.49591 c -0.41315,0.66084 -0.82499,1.31971 -1.23542,1.97645 -0.4269,0.64834 -0.76094,1.35315 -1.14774,2.02386 -0.3586,0.68691 -0.78915,1.33389 -1.11589,2.0375 -0.34621,0.6946 -0.69133,1.38692 -1.0352,2.07683 -2.72228,5.55876 -4.54794,11.46574 -5.9587,17.3335 -1.41692,5.87981 -2.12904,11.79509 -2.52332,17.53868 -0.0915,1.43744 -0.19214,2.86364 -0.21353,4.28084 -0.0212,0.70911 -0.0423,1.41436 -0.0632,2.11567 -0.002,0.68621 -0.003,1.36854 -0.004,2.04694 0,0.68053 -1.7e-4,1.35713 -1.7e-4,2.02975 0.0265,0.72429 0.0528,1.44426 0.0789,2.15987 0.013,0.35778 0.026,0.71452 0.039,1.07011 l 0.0155,0.53307 0.007,0.26591 c 0.011,0.13017 -0.0111,-0.0279 -0.006,0.0346 l 0.007,0.12701 c 0.0358,0.67797 0.0716,1.35168 0.10715,2.02108 0.2779,5.3642 0.88647,10.47178 1.52663,15.29769 1.33324,9.64695 3.10325,18.09373 4.57615,25.06821 1.54093,6.9921 2.75147,12.48588 3.57696,16.23168 0.80868,3.7672 1.23989,5.77627 1.23989,5.77627 z"
     id="path2001"
     style="fill:#ffffff;fill-opacity:1;stroke:none;stroke-width:17.7044;stroke-dasharray:none;stroke-opacity:1" /><path
     d="m 564.78165,714.6187 c 0,0 -2.48402,-0.50906 -7.14156,-1.46346 -2.32043,-0.49039 -5.1583,-1.32492 -8.5396,-2.24449 -1.69283,-0.46483 -3.4399,-1.09317 -5.34952,-1.70781 -1.89517,-0.64041 -3.92984,-1.29572 -6.00868,-2.15166 -8.43646,-3.16726 -18.49175,-7.79679 -29.28903,-14.57065 -10.78869,-6.76452 -22.2924,-15.70138 -33.43826,-27.12604 -1.37655,-1.44042 -2.73377,-2.93129 -4.10099,-4.44409 -0.6842,-0.75733 -1.37181,-1.51843 -2.06268,-2.28317 -0.65775,-0.79333 -1.31862,-1.59052 -1.98259,-2.39141 -1.31929,-1.61097 -2.67302,-3.2266 -4.00097,-4.88913 -1.27409,-1.70655 -2.55952,-3.42828 -3.85606,-5.1646 -1.33025,-1.7198 -2.52469,-3.55548 -3.74944,-5.39679 -0.61145,-0.92254 -1.22519,-1.84879 -1.8416,-2.77867 l -0.46268,-0.69924 -0.23168,-0.35029 c -0.0102,-0.002 -0.3391,-0.61285 -0.24715,-0.43378 l -0.10099,-0.16803 -0.81007,-1.34722 c -1.07991,-1.80085 -2.16796,-3.61534 -3.26417,-5.44302 -1.10287,-2.08676 -2.2136,-4.18848 -3.33225,-6.30473 -1.17111,-2.1484 -2.09217,-4.24131 -3.09843,-6.38327 -0.49328,-1.07057 -0.98819,-2.14455 -1.48465,-3.22193 -0.51047,-1.07332 -0.91343,-2.19041 -1.37715,-3.29062 -0.88179,-2.21597 -1.84116,-4.42735 -2.66961,-6.69822 -0.79444,-2.28546 -1.59334,-4.58411 -2.39674,-6.89521 -3.01279,-9.31523 -5.37857,-19.08372 -6.99346,-29.17346 -1.65424,-10.0873 -2.37119,-20.51184 -2.29473,-31.08093 0.11262,-10.56916 1.07294,-21.29369 3.01442,-31.97554 l 0.80089,-3.99756 0.8609,-4.13937 0.87861,-3.64927 1.0213,-3.96348 c 1.32832,-5.05354 2.71925,-9.88274 4.00031,-14.52339 2.53929,-9.28388 4.55226,-17.85356 4.943,-25.65406 l 0.0396,-1.44516 0.0263,-0.72228 0.0142,-0.36118 c 0.007,0.28895 -0.005,-0.90202 0.0176,0.60226 l -0.008,-0.23523 -0.1318,-3.76322 c -0.008,-2.9098 -0.38667,-4.03379 -0.54573,-5.72692 l -0.0665,-0.6033 c -0.0211,-0.20137 -0.0312,-0.39259 -0.0976,-0.64486 l -0.31021,-1.42479 c -0.20603,-0.94973 -0.39488,-1.90272 -0.5787,-2.85779 -0.20752,-0.95277 -0.54269,-1.89332 -0.79889,-2.8429 -0.29264,-0.94499 -0.49816,-1.90399 -0.84608,-2.84313 -2.60753,-7.53733 -6.52041,-14.94257 -11.39628,-21.92766 -2.39356,-3.5171 -5.10918,-6.88803 -7.92585,-10.18034 -1.39182,-1.65987 -2.9227,-3.22979 -4.36712,-4.85225 -1.51198,-1.5757 -3.07902,-3.10806 -4.60627,-4.66554 -1.60756,-1.49798 -3.21038,-2.99144 -4.80779,-4.47994 -1.6666,-1.42798 -3.28142,-2.90403 -4.97315,-4.29244 -0.85105,-0.68976 -1.70076,-1.37826 -2.54855,-2.0655 l -1.26698,-1.03745 -0.15803,-0.12995 c -0.0846,-0.0675 0.19056,0.12899 -0.0107,-0.0187 l -0.3537,-0.27116 -0.70702,-0.54188 c -0.9421,-0.72214 -1.88227,-1.44294 -2.82067,-2.16226 l -1.39856,-1.06813 -1.31491,-0.9647 c -1.7613,-1.28972 -3.45539,-2.55951 -5.32707,-3.8722 -1.82827,-1.30528 -3.64098,-2.61027 -5.50577,-3.88325 -1.84591,-1.28068 -3.6881,-2.55529 -5.56305,-3.81189 -1.86886,-1.26987 -3.7281,-2.53322 -5.57763,-3.78975 -7.45414,-5.01716 -14.90116,-10.00417 -22.11977,-15.12261 -14.45574,-10.20917 -27.90863,-21.09958 -38.77037,-33.05967 -5.48769,-6.13062 -10.10322,-12.29355 -14.01136,-18.54724 -3.85213,-6.26577 -7.05584,-12.46537 -9.45955,-18.54695 -2.40778,-6.07336 -4.16818,-11.94416 -5.25024,-17.46935 -1.06975,-5.53066 -1.57333,-10.67844 -1.57185,-15.31027 -0.0708,-9.28166 1.66135,-16.33906 3.1503,-20.90132 0.75977,-2.28998 1.44805,-3.99148 1.96236,-5.11621 0.49602,-1.12496 0.752,-1.70551 0.752,-1.70551 0,0 -0.0805,0.62886 -0.2362,1.84724 -0.18151,1.206 -0.31798,3.02241 -0.46327,5.35033 -0.029,1.17229 -0.11861,2.46394 -0.0646,3.89473 0.0235,0.71436 -0.004,1.45242 0.0403,2.22656 0.0442,0.77037 0.09,1.57245 0.13758,2.40564 0.27902,3.32188 0.7923,7.09244 1.76456,11.19439 0.99589,4.09654 2.37696,8.53123 4.34599,13.1492 2.02653,4.59745 4.4575,9.43303 7.59276,14.27416 1.55999,2.42193 3.26439,4.85639 5.07472,7.30759 1.85102,2.42971 3.83302,4.86031 5.96238,7.26587 2.16218,2.38178 4.40282,4.78638 6.80868,7.13082 2.39141,2.32784 5.00805,4.6582 7.62935,6.80764 5.39531,4.45617 11.4637,8.80409 17.97566,12.95939 6.51463,4.18056 13.48779,8.26947 20.85235,12.38543 7.51378,4.12981 15.23248,8.3723 23.12196,12.70867 4.00415,2.20597 8.07869,4.49321 12.18442,6.909 4.12233,2.4 8.22332,4.86587 12.54265,7.6555 l 1.60645,1.02434 1.48761,0.98441 c 0.98492,0.6542 1.972,1.30973 2.96085,1.96652 l 0.74184,0.49283 0.3714,0.24656 c -0.0801,-0.0619 0.31584,0.22108 0.34859,0.24486 l 0.19677,0.13973 1.57467,1.12273 c 1.04805,0.75422 2.09817,1.50991 3.15007,2.26687 2.09565,1.52903 4.1327,3.16993 6.2119,4.76541 2.03987,1.65431 4.05772,3.36537 6.08166,5.0774 1.96303,1.80226 3.95422,3.58215 5.90429,5.43457 1.90206,1.91895 3.86398,3.77374 5.72366,5.7776 3.71173,4.00912 7.33508,8.19346 10.68778,12.72141 6.70903,9.01384 12.61843,19.17656 16.6906,30.51586 0.5307,1.40167 0.92596,2.8795 1.3873,4.32029 0.42845,1.45702 0.91928,2.88788 1.28098,4.37327 l 0.99204,4.49447 0.47557,2.25308 c 0.0865,0.35711 0.13973,0.79052 0.19722,1.21119 l 0.16944,1.26298 c 0.22197,1.68506 0.42734,3.37426 0.61552,5.06369 0.24479,1.88613 0.20923,2.86757 0.27961,4.18286 l 0.15158,3.76248 0.009,0.23515 c 0.0252,1.66105 0.003,0.62693 0.007,1.07272 l -0.0145,0.57989 -0.0312,1.15984 -0.0762,2.3191 c -0.71413,12.29905 -3.59704,23.36238 -6.49484,33.29816 -1.42197,4.76356 -2.84091,9.51778 -4.25584,14.258 l -0.92921,3.23735 -0.95847,3.56889 c -0.50484,2.12966 -1.00864,4.25561 -1.51155,6.37734 -1.87946,8.71852 -3.08405,17.54788 -3.61126,26.34308 -0.55003,8.79298 -0.46787,17.56299 0.32465,26.14904 0.76325,8.5896 2.12336,17.00051 3.95718,25.14922 0.50958,2.02557 1.01634,4.04016 1.52036,6.04321 0.51239,2.00385 1.15222,3.95518 1.7141,5.92466 0.30332,0.97618 0.54662,1.97415 0.89587,2.92736 0.33429,0.96018 0.66783,1.91732 1.00019,2.87135 0.66864,1.8968 1.27713,3.87554 2.00689,5.60453 0.70273,1.7959 1.40071,3.57942 2.09365,5.35027 0.87839,1.94169 1.7507,3.86939 2.6162,5.78256 l 0.64649,1.43293 0.0805,0.17878 c 0.1544,0.29361 -0.11995,-0.19819 -0.0613,-0.0895 l 0.16425,0.32399 0.32806,0.64738 c 0.43727,0.86401 0.87254,1.72462 1.30617,2.58174 0.88135,1.70832 1.67409,3.45694 2.63901,5.09021 0.92514,1.66224 1.8425,3.31047 2.75163,4.94411 0.98559,1.59371 1.96259,3.17326 2.93025,4.73807 0.48854,0.78311 0.97485,1.56252 1.45879,2.33822 0.51884,0.75243 1.03531,1.50124 1.54903,2.24642 1.02434,1.50117 2.03839,2.98745 3.04206,4.45846 8.35511,11.55646 17.34769,21.36429 26.04383,29.4018 8.69526,8.05588 17.11261,14.30408 24.32285,19.10913 1.77263,1.26424 3.53221,2.3151 5.18089,3.33448 1.65046,1.00855 3.17526,2.04905 4.64332,2.87276 1.47301,0.83682 2.83579,1.61119 4.08446,2.3205 1.25491,0.71651 2.38045,1.40753 3.45191,1.92614 4.21183,2.20582 6.45795,3.38234 6.45795,3.38234 z"
     id="path2003"
     style="fill:#ffffff;fill-opacity:1;stroke:none;stroke-width:17.7044;stroke-dasharray:none;stroke-opacity:1" /><path
     d="m 842.79835,709.13049 c 0,0 -0.4616,-0.5204 -1.3559,-1.5286 -0.4472,-0.5042 -1.0025,-1.1302 -1.6624,-1.8742 -0.6513,-0.7534 -1.3534,-1.6492 -2.1733,-2.6287 -3.2127,-3.9729 -7.723,-9.9868 -12.1947,-18.1189 -4.4285,-8.1495 -8.8345,-18.4444 -11.6925,-30.587 -1.3843,-6.0757 -2.5239,-12.5549 -2.9698,-19.3924 -0.2437,-3.413 -0.3297,-6.9031 -0.326,-10.4464 0.0927,-3.5483 0.2547,-7.1519 0.707,-10.7837 0.3821,-3.6355 1.0334,-7.2861 1.7624,-10.9502 0.8758,-3.6381 1.7355,-7.3164 3.0068,-10.9089 0.2768,-0.9095 0.6064,-1.8041 0.9546,-2.6938 0.3355,-0.8906 0.6723,-1.7848 1.0103,-2.6826 0.7638,-1.7571 1.4502,-3.5505 2.326,-5.2694 0.7881,-1.7572 1.7453,-3.4395 2.642,-5.1519 l 0.1684,-0.3211 c -0.0689,0.1509 0.2729,-0.5646 -0.1331,0.2977 l 0.1098,-0.1888 0.4399,-0.756 0.8824,-1.5161 c 0.5891,-1.0125 1.1805,-2.0286 1.7737,-3.0482 l 0.4421,-0.7491 0.4081,-0.5817 0.8116,-1.1653 c 0.5315,-0.7784 1.0647,-1.5594 1.5996,-2.343 l 0.3956,-0.592 0.4721,-0.6397 0.9438,-1.2817 c 0.6268,-0.8549 1.2555,-1.7126 1.8862,-2.5729 1.2918,-1.7136 2.712,-3.4135 4.0628,-5.1334 1.3964,-1.7208 2.8903,-3.4384 4.3349,-5.1703 5.9811,-6.9044 12.6739,-13.926 19.7406,-21.4159 7.0613,-7.4904 14.4717,-15.483 21.7247,-24.4717 l 2.7034,-3.3998 2.652,-3.5599 c 0.878,-1.2026 1.7804,-2.3633 2.6391,-3.6093 l 2.5651,-3.7686 1.281,-1.8928 0.3176,-0.4756 0.5876,-0.9701 0.5202,-0.8593 2.0839,-3.4422 1.0436,-1.724 c 0.1648,-0.2573 0.3637,-0.6257 0.5633,-0.9986 l 0.591,-1.0961 2.3482,-4.4066 1.1639,-2.2156 c 0.3599,-0.7232 0.6692,-1.4161 1.0057,-2.1269 l 1.9568,-4.2582 0.9666,-2.1385 0.8693,-2.1775 1.7298,-4.3673 c 0.6012,-1.45 1.0994,-2.9342 1.5982,-4.4203 l 1.5051,-4.4604 c 0.9849,-2.9823 1.7252,-6.0366 2.5853,-9.0628 3.1495,-12.1783 4.9344,-24.746 5.3362,-37.3791 0.3519,-12.6312 -0.6114,-25.3351 -3.0808,-37.7514 -1.2234,-6.2307 -2.7585,-12.3064 -4.7243,-18.4143 l -1.2938,-3.9253 -1.6796,-4.6234 -0.8494,-2.2963 -0.8595,-2.1112 -1.7423,-4.2038 c -2.4415,-5.4899 -4.9699,-10.8761 -7.6832,-15.9851 -2.6991,-5.1527 -5.539,-10.0513 -8.3719,-14.8693 -5.7441,-9.5379 -11.6122,-18.4798 -17.3156,-27.018 -2.8059,-4.2154 -5.5882,-8.3957 -8.3444,-12.5365 -0.675,-1.0245 -1.3485,-2.0466 -2.0203,-3.0661 -0.6531,-1.0132 -1.3046,-2.0239 -1.9545,-3.032 -0.6679,-1.0342 -1.3341,-2.0657 -1.9985,-3.0945 -0.6162,-0.9735 -1.2308,-1.9445 -1.8438,-2.9128 -1.2395,-1.9127 -2.4168,-3.9458 -3.6214,-5.8999 -1.1645,-1.9715 -2.3222,-3.9316 -3.4729,-5.8799 -1.0824,-1.9577 -2.1965,-3.9023 -3.2394,-5.8447 -0.9904,-1.9504 -2.0957,-3.8677 -3.0292,-5.7992 -7.787,-15.4035 -12.9329,-30.4522 -14.6645,-44.7363 -0.2954,-1.7905 -0.384,-3.5541 -0.5186,-5.3134 -0.0649,-0.8146 -0.1297,-1.6246 -0.1941,-2.4302 -0.008,-0.9758 -0.0153,-1.9462 -0.023,-2.9109 0.003,-0.7557 0.007,-1.507 0.0103,-2.2538 0.0449,-0.8295 0.0897,-1.6541 0.1341,-2.4737 0.1441,-1.6388 0.2659,-3.2776 0.4828,-4.8928 0.4134,-3.2327 1.0354,-6.3899 1.8201,-9.4372 0.7969,-3.0443 1.7884,-5.9575 2.8323,-8.7755 2.1178,-5.6325 4.875,-10.624 7.7666,-15.0643 2.9481,-4.39689 6.1579,-8.15649 9.3956,-11.25329 6.5065,-6.1809 13.0353,-9.7387 17.7255,-11.627 1.1687,-0.5056 2.232,-0.8704 3.1568,-1.195 0.9217,-0.346299 1.713,-0.593099 2.3571,-0.764399 1.2937,-0.3718 1.9613,-0.5637 1.9613,-0.5637 0,0 -0.6948,-0.0524 -2.0408,-0.1539 -0.6795,-0.0643 -1.5229,-0.1093 -2.5291,-0.1054 -1.0115,-0.0298 -2.1861,-0.0236 -3.513,0.0835 -2.6683,0.1335 -5.9801,0.5535 -9.8094,1.550399 -3.8396,0.9622 -8.188,2.5367 -12.8011,4.9415 -9.2292,4.7586 -19.4214,13.0932 -27.8447,25.38409 -4.244,6.1193 -7.9128,13.2602 -10.8074,21.3002 -0.7291,2.0092 -1.3785,4.0854 -1.9628,6.2162 -0.2705,1.0743 -0.5428,2.1551 -0.8167,3.2424 -0.24,1.181 -0.4815,2.3689 -0.7243,3.5638 -0.1818,0.9934 -0.3647,1.9926 -0.5486,2.9974 l -0.0669,0.3688 c 0.007,-0.1741 -0.0474,0.4416 -0.0503,0.4574 l -0.0254,0.2092 -0.1014,0.839 -0.2018,1.6883 c -0.2671,2.2602 -0.5692,4.5599 -0.6531,6.877 -0.6024,9.2943 -0.0267,19.0192 1.5728,28.7831 1.5962,9.7711 4.2069,19.583 7.5655,29.2553 3.3541,9.7024 7.4189,19.1963 12.0202,28.6373 0.5848,1.1936 1.1711,2.3905 1.7591,3.5905 0.5662,1.1298 1.1339,2.2626 1.703,3.3982 0.5966,1.1564 1.1946,2.3157 1.7941,3.4778 0.6035,1.1425 1.2087,2.2878 1.8153,3.4359 2.4267,4.5949 4.886,9.1304 7.3856,13.6494 4.9462,9.0277 9.9258,17.9388 14.5172,26.8467 2.2695,4.4391 4.5128,8.887 6.514,13.3353 2.1035,4.435 3.9264,8.877 5.6752,13.3235 l 1.2116,3.3349 0.6195,1.6635 0.5014,1.5299 1.0157,3.0425 1.1301,3.8438 0.5694,1.9561 0.1425,0.4892 c -0.2486,-0.8255 -0.0413,-0.1093 -0.0843,-0.2396 l 0.0484,0.2082 0.1941,0.8327 0.7966,3.3259 0.4135,1.6598 c 0.1251,0.557 0.2136,1.1243 0.3233,1.6858 l 0.6384,3.3757 c 1.5609,9.0338 2.2654,18.3049 1.9578,27.5763 -0.2326,9.2737 -1.5148,18.5314 -3.6044,27.5387 -0.6057,2.2288 -1.0845,4.4966 -1.7634,6.6984 l -0.9996,3.3077 c -0.3256,1.1052 -0.6461,2.2121 -1.0624,3.2814 l -1.1628,3.2402 -0.5753,1.6218 -0.663,1.5811 -1.3168,3.1637 -0.6455,1.571 -0.6622,1.3954 -1.2983,2.8046 -0.3194,0.7043 c -0.1005,0.2289 -0.2033,0.4612 -0.3859,0.7797 l -0.9647,1.7694 -1.9264,3.5327 -0.4809,0.8819 -0.1202,0.2204 c -0.3217,0.5499 0.3026,-0.4986 0.1976,-0.3263 l -0.2252,0.3684 -0.8883,1.4807 -1.7657,2.9656 c -0.5935,0.9887 -1.278,1.968 -1.9099,2.9527 l -1.9331,2.9507 -2.0759,2.9411 c -5.504,7.8765 -11.7534,15.7046 -18.1176,23.7581 -6.3667,8.0483 -12.9004,16.3125 -18.9473,25.108 -1.4967,2.2405 -3.0028,4.4202 -4.4536,6.6721 -1.4114,2.3126 -2.8457,4.5504 -4.1945,6.8809 -0.6624,1.1799 -1.3227,2.3563 -1.981,3.5289 l -0.9807,1.7549 -0.488,0.8751 -0.4908,0.9636 c -0.6419,1.2912 -1.2819,2.5782 -1.9197,3.861 l -0.9395,1.9213 -0.4652,0.9578 -0.3507,0.8297 c -0.9839,2.3698 -1.9608,4.7236 -2.9311,7.0604 -0.9458,2.5488 -1.8592,5.0802 -2.5999,7.6371 -0.8241,2.531 -1.4212,5.0965 -2.0727,7.6139 -0.2982,1.2655 -0.5431,2.5362 -0.8009,3.7959 -0.2647,1.2585 -0.5042,2.5137 -0.684,3.7725 -0.8819,5.0077 -1.2861,9.9633 -1.5456,14.7938 -0.1258,4.8386 -0.1621,9.5608 0.2543,14.1465 1.3097,18.3688 6.5059,34.3346 12.8936,47.2282 6.4504,12.9208 14.1722,22.7947 21.2522,29.9437 3.5663,3.565 6.8987,6.5372 9.991,8.8716 0.7619,0.5891 1.4954,1.1563 2.1997,1.7009 0.7298,0.5106 1.4297,1.0002 2.0988,1.4683 0.6698,0.4594 1.3089,0.8976 1.917,1.3146 0.6288,0.3936 1.2256,0.767 1.7892,1.1199 2.2272,1.4427 3.9949,2.3474 5.1866,2.9832 1.1878,0.637 1.8008,0.9658 1.8008,0.9658 z"
     id="path3371"
     style="fill:#ffffff;fill-opacity:1;stroke:none;stroke-width:17.7044;stroke-dasharray:none;stroke-opacity:1" /><path
     d="m 225.05554,705.35441 c 0,0 0.426,-0.8402 1.2516,-2.4681 0.818,-1.6311 2.071,-4.0352 3.6154,-7.2079 1.5671,-3.1641 3.4824,-7.0752 5.6673,-11.7051 2.2029,-4.6256 4.681,-9.9677 7.3419,-16.0187 2.719,-6.0295 5.5164,-12.8051 8.4659,-20.2592 2.9869,-7.4441 5.8599,-15.6559 8.7187,-24.5684 2.8622,-8.9138 5.4272,-18.6009 7.6697,-29.0167 0.2758,-1.3044 0.553,-2.6171 0.8319,-3.9382 0.2403,-1.3386 0.4821,-2.6856 0.7256,-4.0409 0.2275,-1.2927 0.4565,-2.5933 0.687,-3.9017 0.1999,-1.4102 0.4013,-2.8287 0.6038,-4.2556 0.1962,-1.4313 0.3932,-2.8708 0.5916,-4.3185 0.1558,-1.4247 0.3127,-2.8574 0.4702,-4.298 0.3507,-2.8812 0.5571,-5.8139 0.7773,-8.7836 0.8293,-11.8795 0.7026,-24.4366 -0.7538,-37.4952 -0.3929,-3.2611 -0.7378,-6.5667 -1.3727,-9.8722 -0.2955,-1.655 -0.5475,-3.3249 -0.8889,-4.9907 -0.3618,-1.665 -0.725,-3.3365 -1.0897,-5.0145 l -0.5553,-2.525 -0.6672,-2.5169 c -0.4504,-1.6834 -0.9025,-3.373 -1.3561,-5.0687 -0.4899,-1.6891 -1.0557,-3.3691 -1.588,-5.0656 -0.5507,-1.6916 -1.0536,-3.4062 -1.7177,-5.0817 -1.26,-3.371 -2.4926,-6.7906 -4.0461,-10.1253 -0.7718,-1.6668 -1.4477,-3.3842 -2.3166,-5.0259 -0.8462,-1.654 -1.695,-3.3131 -2.5464,-4.9774 l -0.6433,-1.2493 -0.1613,-0.3126 -0.442,-0.7343 -0.3103,-0.5366 -1.2446,-2.1504 c -0.8392,-1.4429 -1.6808,-2.8901 -2.5249,-4.3414 -1.1013,-1.6677 -2.2058,-3.3402 -3.3132,-5.0174 l -1.6842,-2.5146 c -0.5652,-0.8533 -1.1283,-1.5477 -1.6953,-2.3309 -1.1374,-1.5245 -2.2776,-3.0532 -3.4211,-4.5859 -1.1315,-1.55 -2.3994,-2.9599 -3.6032,-4.4519 -1.2298,-1.4602 -2.4284,-2.9789 -3.7285,-4.3762 -1.2977,-1.4045 -2.5987,-2.8124 -3.9025,-4.2237 -1.2893,-1.4368 -2.6539,-2.7752 -4.0217,-4.1205 -1.3683,-1.3476 -2.7402,-2.6983 -4.115,-4.052 -1.4195,-1.2876 -2.8419,-2.5782 -4.2678,-3.8715 -1.4259,-1.2999 -2.8693,-2.5798 -4.3574,-3.7865 -11.7541,-9.9426 -24.484,-18.7466 -37.7045,-26.56 -6.607,-3.9552 -13.3585,-7.5661 -20.1555,-11.1394 -1.7072,-0.8596 -3.4161,-1.7204 -5.1273,-2.5822 l -2.699,-1.3427 -2.4729,-1.1935 -4.9637,-2.3929 -5.2267,-2.4449 c -27.5073,-12.7503 -54.922999,-23.5676 -79.878998,-36.5528 -6.2673,-3.2057 -12.314901,-6.5879 -18.206801,-10.1123 l -4.3718,-2.6826 -0.5469,-0.3347 c 0.0674,0.046 -0.5364,-0.3395 0.0817,0.061 l -0.2917,-0.1927 -1.1691,-0.7679 -2.3415,-1.5295 c -3.3737,-2.1346 -5.5946,-3.8373 -8.2369,-5.6635 -10.6137996,-7.832 -20.6029996,-16.5494 -28.9485,-26.0963 -16.937,-19.0264 -27.3786,-41.2046 -28.6542,-63.7276 -0.3165,-5.6541 -0.1128,-11.3564 0.5704,-17.0305 0.6989,-5.6715 1.865,-11.3152 3.431,-16.8638 1.5793,-5.5451 3.5774,-10.985 5.8826,-16.2825 2.3154,-5.2947 4.9893,-10.4174 7.8667,-15.386 5.7815,-9.9312 12.6738,-19.0258 20.0733004,-27.2408 3.69679999,-4.1146 7.5453,-7.9939 11.4978,-11.6277 0.9927,-0.9027 1.9669996,-1.8231 2.9834996,-2.6794 0.9444,-0.8159 1.8842,-1.628 2.8192,-2.436 2.2465,-1.7772 4.4529,-3.562 6.6317,-5.3356 8.0033,-6.299705 16.6909,-12.058005 25.043801,-17.203805 8.361,-5.2165 16.758499,-9.5388 24.671799,-13.6728 15.9554,-8.0422 30.479399,-14.315 42.508399,-19.4279 12.1171,-5.0456 21.6375,-9.01 28.1286,-11.7131 6.505,-2.7503 9.9743,-4.2171 9.9743,-4.2171 0,0 -0.9328,0.1323 -2.7399,0.3886 -1.8057,0.2639 -4.4954,0.616 -7.9809,1.1647 -3.4882,0.5461 -7.797,1.1852 -12.8398,2.0712 -5.0565,0.8285 -10.8484,1.8923 -17.3359,3.1548 -12.973399,2.5408 -28.700999,6.0478 -46.586799,11.5116 -2.2413,0.6608 -4.497999,1.4279 -6.794199,2.1847 -2.2944,0.7649 -4.6293,1.5344 -6.9688,2.4216 -2.35,0.8665 -4.7339,1.7454 -7.1505,2.6364 -2.399401,0.9673 -4.831201,1.9477 -7.294801,2.9409 -9.8453,4.137 -19.8646,9.0098 -30.4976996,15.1805 -2.4081,1.4473 -4.83590001,2.9168 -7.2704,4.4266 l -0.4576,0.2818 -0.229,0.141 -0.4969,0.3455 -0.9656,0.6485 -1.9393,1.3043 c -1.3077,0.8593 -2.5729,1.7852 -3.8604004,2.6989 -5.1315,3.6776 -10.1972,7.6711 -15.1523,11.9941 -9.899,8.659005 -19.2041,18.774805 -27.642097,30.239105 -4.2216,5.7331 -8.1314,11.8692 -11.7068,18.364 -3.5838,6.4905 -6.7814,13.3715 -9.4902,20.6123 -2.7219,7.2348 -4.9333,14.8418 -6.4716,22.7511 -1.548,7.9033 -2.4609,16.1096 -2.497,24.4673 0.0355,2.1143 0.0239,4.1305 0.1215,6.3442 l 0.2125,3.42 c 0.0753,1.1265 0.1557,2.3834 0.2464,3.1478 l 0.2644,2.639 0.1325,1.3214 0.1947,1.2701 0.1305,0.7841 c 0.3571,2.0924 0.7151,4.1887 1.074,6.2888 0.3086,2.1186 0.9081,4.1538 1.3942,6.2313 0.5396,2.0576 0.9708,4.1689 1.6255,6.1914 1.3221,4.0375 2.5223,8.1717 4.2233,12.0647 3.0741,7.9768 7.0871,15.4654 11.3834,22.7571 2.2828,3.5325 4.4994,7.1602 7.0234,10.502 1.2446,1.687 2.4351,3.4403 3.7401,5.0723 l 3.932697,4.8932 c 1.2925,1.6599 2.6952,3.1889 4.0813,4.7484 1.4006,1.5399 2.7593,3.1403 4.207,4.6284 2.9123,2.9522 5.7734,5.9982 8.8411,8.7691 6.0017,5.7666 12.3832,10.9084 18.9996,15.9701 13.2933004,9.9396 27.1595,18.1515 41.2365,25.4516 28.157001,14.5531 56.6651,25.2001 82.871799,36.4489 l 4.8315,2.0645 5.0225,2.2195 2.5107,1.1111 2.2456,1.0293 4.7388,2.1662 c 6.2389,2.9533 12.4243,5.9242 18.3333,9.1349 11.9431,6.2706 23.0779,13.1948 33.2452,20.7136 10.2248,7.479 19.1385,15.829 26.9087,24.6755 0.4708,0.5446 1.0255,1.114 1.4285,1.636 l 1.2565,1.5742 c 0.8503,1.0449 1.6982,2.087 2.5435,3.126 0.9508,1.3584 1.8987,2.7128 2.8439,4.0633 l 1.4201,2.0386 0.3545,0.5087 c -0.0688,-0.1231 0.4048,0.6346 -0.1101,-0.2117 l 0.1409,0.2275 0.564,0.909 c 0.7573,1.2113 1.5122,2.419 2.2645,3.6228 0.7825,1.1884 1.3948,2.4803 2.1038,3.7097 0.6573,1.2591 1.4465,2.445 2.0454,3.7347 0.6346,1.2732 1.2672,2.5422 1.8975,3.8068 4.9899,10.1891 8.3363,21.0165 10.9222,31.772 2.5972,10.7776 3.9025,21.6202 4.6252,32.1481 0.1677,2.6348 0.3522,5.249 0.3914,7.8467 0.0389,1.2998 0.0776,2.5925 0.1159,3.878 0.003,1.2578 0.005,2.5085 0.008,3.752 0,1.2474 3e-4,2.4876 3e-4,3.7205 -0.0485,1.3276 -0.0967,2.6473 -0.1447,3.959 -0.0238,0.6558 -0.0477,1.3097 -0.0715,1.9615 l -0.0285,0.9771 -0.0136,0.4874 c -0.0201,0.2386 0.0203,-0.0511 0.011,0.0634 l -0.0125,0.2328 c -0.0657,1.2427 -0.1313,2.4776 -0.1964,3.7046 -0.5094,9.8325 -1.6249,19.1946 -2.7983,28.0404 -2.4438,17.6827 -5.6882,33.1655 -8.388,45.9496 -2.8245,12.8164 -5.0434,22.8864 -6.5565,29.7524 -1.4823,6.9052 -2.2727,10.5878 -2.2727,10.5878 z"
     id="path3373"
     style="fill:#ffffff;fill-opacity:1;stroke:none;stroke-width:17.7044;stroke-dasharray:none;stroke-opacity:1" /><path
     d="m 425.84622,693.37631 c 0,0 3.3528,-0.6871 9.6393,-1.9753 3.132,-0.6619 6.9624,-1.7883 11.5263,-3.0295 2.2849,-0.6274 4.643,-1.4755 7.2205,-2.3051 2.558,-0.8644 5.3043,-1.7489 8.1102,-2.9042 11.3871,-4.275 24.9592,-10.5237 39.5328,-19.6667 14.562,-9.1304 30.0891,-21.1929 45.1332,-36.6133 1.858,-1.9442 3.6899,-3.9565 5.5353,-5.9984 0.9235,-1.0222 1.8516,-2.0495 2.7841,-3.0817 0.8878,-1.0708 1.7798,-2.1468 2.676,-3.2278 1.7807,-2.1744 3.6079,-4.3551 5.4003,-6.5991 1.7197,-2.3034 3.4547,-4.6273 5.2047,-6.9709 1.7955,-2.3213 3.4077,-4.799 5.0608,-7.2843 0.8253,-1.2452 1.6537,-2.4954 2.4857,-3.7505 l 0.6245,-0.9438 0.3127,-0.4728 c 0.0137,-0.003 0.4577,-0.8272 0.3336,-0.5855 l 0.1363,-0.2268 1.0934,-1.8184 c 1.4576,-2.4307 2.9262,-4.8798 4.4058,-7.3467 1.4886,-2.8166 2.9878,-5.6534 4.4977,-8.5098 1.5807,-2.8998 2.8239,-5.7247 4.1821,-8.6158 0.6658,-1.445 1.3338,-2.8946 2.0039,-4.3488 0.689,-1.4487 1.2329,-2.9565 1.8588,-4.4415 1.1902,-2.991 2.4851,-5.9758 3.6033,-9.0409 1.0723,-3.0848 2.1506,-6.1874 3.235,-9.3068 4.0665,-12.5732 7.2597,-25.7582 9.4394,-39.3768 2.2328,-13.6153 3.2005,-27.6858 3.0973,-41.9514 -0.152,-14.2657 -1.4482,-28.7411 -4.0687,-43.1589 l -1.081,-5.3957 -1.162,-5.5871 -1.1859,-4.9256 -1.3785,-5.3497 c -1.7929,-6.821 -3.6703,-13.3392 -5.3994,-19.6029 -3.4274,-12.5309 -6.1444,-24.0978 -6.6718,-34.6265 l -0.0535,-1.9506 -0.0355,-0.9749 -0.0192,-0.4875 c -0.009,0.39 0.007,-1.2175 -0.0238,0.8129 l 0.0113,-0.3175 0.1779,-5.0794 c 0.0114,-3.9275 0.5219,-5.4446 0.7366,-7.7299 l 0.0898,-0.8143 c 0.0285,-0.2718 0.0421,-0.5299 0.1317,-0.8704 l 0.4187,-1.9231 c 0.2781,-1.2819 0.533,-2.5682 0.7811,-3.8573 0.2801,-1.286 0.7325,-2.5555 1.0783,-3.8372 0.395,-1.2755 0.6724,-2.5699 1.142,-3.8375 3.5195,-10.1735 8.8009,-20.1687 15.3821,-29.5968 3.2307,-4.7472 6.8961,-9.2971 10.6979,-13.7409 1.8786,-2.2404 3.9449,-4.3594 5.8945,-6.5493 2.0408,-2.1268 4.1559,-4.1951 6.2173,-6.2973 2.1698,-2.0219 4.3332,-4.0377 6.4893,-6.0468 2.2495,-1.9274 4.4291,-3.9197 6.7125,-5.7937 1.1487,-0.931 2.2956,-1.8603 3.4399,-2.7879 l 1.7101,-1.4003 0.2133,-0.1754 c 0.1142,-0.0911 -0.2572,0.1741 0.0145,-0.0253 l 0.4774,-0.366 0.9543,-0.7314 c 1.2716,-0.9747 2.5406,-1.9476 3.8072,-2.9185 l 1.8877,-1.4417 1.7748,-1.3021 c 2.3773,-1.7408 4.6639,-3.4547 7.1902,-5.2265 2.4677,-1.7618 4.9144,-3.5232 7.4314,-5.2414 2.4915,-1.7286 4.978,-3.449 7.5087,-5.1451 2.5225,-1.714 5.032,-3.4192 7.5284,-5.1152 10.0612,-6.7719 20.1128,-13.5031 29.8561,-20.4117 19.5116,-13.7798 37.6696,-28.4791 52.3302,-44.6222 7.407,-8.2748 13.6368,-16.5932 18.9118,-25.0341 5.1994,-8.4572 9.5236,-16.825096 12.768,-25.033696 3.2499,-8.197502 5.626,-16.121602 7.0865,-23.579212 1.4439,-7.465 2.1236,-14.413198 2.1216,-20.664998 0.0956,-12.5279 -2.2424,-22.0536 -4.2521,-28.2115 -1.0255,-3.0909 -1.9545,-5.3875 -2.6487,-6.9055996 -0.6695,-1.5184 -1.015,-2.302 -1.015,-2.302 0,0 0.1087,0.8488 0.3188,2.4933 0.245,1.6277996 0.4292,4.0794996 0.6253,7.2215996 0.0392,1.5823 0.1601,3.3257 0.0872,5.2569 -0.0317,0.9642 0.006,1.9604 -0.0544,3.0053 -0.0596,1.0398 -0.1215,2.1224 -0.1857,3.247 -0.3766,4.4837 -1.0694,9.573 -2.3817,15.1096 -1.3442,5.5293 -3.2083,11.515 -5.866,17.748098 -2.7353,6.2054 -6.0165,12.73221 -10.2483,19.26651 -2.1056,3.269 -4.4061,6.554902 -6.8496,9.863402 -2.4984,3.2795 -5.1736,6.5602 -8.0477,9.8071 -2.9184,3.214796 -5.9427,6.460396 -9.19,9.624796 -3.2278,3.142 -6.7596,6.2874 -10.2977,9.1886 -7.2823,6.0147 -15.4731,11.8833 -24.2626,17.4919 -8.7931,5.6427 -18.2051,11.1617 -28.1454,16.7172 -10.1417,5.5742 -20.56,11.3005 -31.2088,17.1535 -5.4046,2.9775 -10.9042,6.0647 -16.4459,9.3254 -5.5641,3.2394 -11.0994,6.5677 -16.9294,10.333 l -2.1683,1.3826 -2.0079,1.3287 c -1.3294,0.883 -2.6617,1.7678 -3.9964,2.6543 l -1.0013,0.6652 -0.5013,0.3328 c 0.1081,-0.0836 -0.4263,0.2984 -0.4705,0.3305 l -0.2656,0.1886 -2.1254,1.5154 c -1.4146,1.018 -2.832,2.038 -4.2518,3.0597 -2.8286,2.0638 -5.5781,4.2786 -8.3845,6.4321 -2.7533,2.2329 -5.4769,4.5424 -8.2087,6.8532 -2.6496,2.4326 -5.3372,4.835 -7.9693,7.3353 -2.5673,2.5901 -5.2154,5.0936 -7.7255,7.7983 -5.0099,5.4113 -9.9005,11.0591 -14.4258,17.1707 -9.0555,12.1664 -17.0317,25.8835 -22.5281,41.1887 -0.7163,1.8919 -1.2498,3.8866 -1.8725,5.8313 -0.5783,1.9666 -1.2408,3.8979 -1.729,5.9028 l -1.339,6.0664 -0.6419,3.0411 c -0.1168,0.482 -0.1886,1.067 -0.2662,1.6348 l -0.2287,1.7047 c -0.2996,2.2744 -0.5768,4.5544 -0.8308,6.8347 -0.3304,2.5458 -0.2824,3.8705 -0.3774,5.6458 l -0.2046,5.0784 -0.0128,0.3174 c -0.034,2.242 -0.004,0.8462 -0.009,1.4479 l 0.0195,0.7827 0.0421,1.5655 0.1029,3.1302 c 0.9639,16.6006 4.8551,31.5333 8.7664,44.9441 1.9193,6.4296 3.8345,12.8466 5.7443,19.2447 l 1.2542,4.3696 1.2937,4.8171 c 0.6814,2.8745 1.3614,5.744 2.0402,8.6078 2.5368,11.7678 4.1627,23.6852 4.8743,35.5565 0.7424,11.8683 0.6315,23.7056 -0.4382,35.2946 -1.0302,11.5938 -2.866,22.9464 -5.3412,33.9451 -0.6878,2.734 -1.3718,5.4532 -2.0521,8.1568 -0.6916,2.7047 -1.5552,5.3385 -2.3136,7.9968 -0.4094,1.3176 -0.7378,2.6646 -1.2092,3.9512 -0.4512,1.296 -0.9014,2.5879 -1.35,3.8756 -0.9025,2.5602 -1.7238,5.231 -2.7088,7.5647 -0.9485,2.424 -1.8906,4.8313 -2.8259,7.2215 -1.1856,2.6208 -2.363,5.2227 -3.5312,7.805 l -0.8726,1.9341 -0.1087,0.2413 c -0.2084,0.3963 0.1619,-0.2675 0.0828,-0.1208 l -0.2217,0.4373 -0.4428,0.8738 c -0.5902,1.1662 -1.1777,2.3278 -1.763,3.4847 -1.1896,2.3058 -2.2596,4.666 -3.562,6.8705 -1.2487,2.2436 -2.4869,4.4683 -3.714,6.6733 -1.3303,2.1511 -2.649,4.2831 -3.9551,6.3952 -0.6594,1.057 -1.3158,2.109 -1.969,3.156 -0.7003,1.0156 -1.3974,2.0263 -2.0908,3.0321 -1.3826,2.0262 -2.7513,4.0323 -4.106,6.0178 -11.2773,15.5983 -23.415,28.8364 -35.1526,39.685 -11.7364,10.8734 -23.0977,19.3069 -32.8297,25.7925 -2.3926,1.7064 -4.7676,3.1248 -6.9929,4.5007 -2.2277,1.3613 -4.2858,2.7657 -6.2673,3.8775 -1.9882,1.1295 -3.8276,2.1747 -5.513,3.1321 -1.6938,0.9671 -3.213,1.8998 -4.6592,2.5998 -5.6849,2.9773 -8.7166,4.5653 -8.7166,4.5653 z"
     id="path3375"
     style="fill:#ffffff;fill-opacity:1;stroke:none;stroke-width:17.7044;stroke-dasharray:none;stroke-opacity:1" /></g><g
   id="g936"
   inkscape:export-filename="..\..\source\repos\Frontend\Övning8\g3425.svg"
   inkscape:export-xdpi="96"
   inkscape:export-ydpi="96"
   transform="translate(-6937.4993,2350.7302)"><path
     d="m -774.6889,1976.0434 c 79.25595,-476.3046 -7.90483,-414.5697 766.3492716,-564.3257 C 90.886338,1733.61 1000.354,1717.2378 1015.3315,1392.9419 c 820.2267,158.7684 706.2313,101.5399 766.1413,583.1015 z"
     id="path920"
     style="stroke-width:17.6765"
     sodipodi:nodetypes="ccccc" /><path
     id="path922"
     style="stroke-width:17.6766"
     d="m 114.92451,704.04509 c -30.767472,0 -55.964733,25.19716 -55.964733,55.96473 v 52.80543 c -32.180234,-19.32242 -69.856209,-30.46467 -110.124145,-30.46467 -118.316452,0 -158.371162,101.97671 -158.371162,220.29342 0,118.3167 40.0548,208.1978 158.371162,208.1978 41.9688047,0 81.135833,-12.1368 114.186102,-32.9921 -1.662151,-12.7914 -2.651783,-25.7367 -2.888503,-38.9045 3.323102,190.527 159.083899,345.6725 350.366289,345.6725 h 191.00221 c 178.13982,0 326.42966,-134.2877 348.65124,-306.6326 33.17156,21.0805 72.51373,33.3081 114.72773,33.3081 118.3165,0 158.3711,-89.8362 158.3711,-208.1527 0,-118.31659 -40.0545,-220.29336 -158.3711,-220.29346 -40.9996,0 -79.27857,11.52695 -111.83923,31.50273 v -54.33995 c 0,-30.76757 -25.19716,-55.96473 -55.96473,-55.96473 -260.72534,16.60788 -521.42669,16.60788 -782.15223,0 z M -51.164368,850.54631 c 43.9318763,0 83.343358,19.36113 110.124145,50.05233 v 191.94996 c -26.781021,30.6963 -66.1883181,50.0975 -110.124145,50.0975 -80.682722,0 -90.220562,-59.319 -90.220562,-140.0021 0,-80.68307 9.53775,-152.09769 90.220562,-152.09769 z m 1116.045068,0.45133 c 80.683,0 90.2657,71.45984 90.2657,152.14286 0,80.6831 -9.5828,140.0021 -90.2657,140.0021 -44.9025,0 -85.04066,-20.2533 -111.83923,-52.1285 V 903.12608 c 26.79847,-31.87517 66.93663,-52.12844 111.83923,-52.12844 z" /><path
     d="m 373.02675,717.0964 c 0,0 0.4616,-0.5204 1.3559,-1.5286 0.4472,-0.5042 1.0025,-1.1302 1.6624,-1.8742 0.6513,-0.7534 1.3534,-1.6492 2.1733,-2.6287 3.2127,-3.9729 7.723,-9.9868 12.1947,-18.1189 4.4285,-8.1495 8.8345,-18.4444 11.6925,-30.587 1.3843,-6.0757 2.5239,-12.5549 2.9698,-19.3924 0.2437,-3.413 0.3297,-6.9031 0.326,-10.4464 -0.0927,-3.5483 -0.2547,-7.1519 -0.707,-10.7837 -0.3821,-3.6355 -1.0334,-7.2861 -1.7624,-10.9502 -0.8758,-3.6381 -1.7355,-7.3164 -3.0068,-10.9089 -0.2768,-0.9095 -0.6064,-1.8041 -0.9546,-2.6938 -0.3355,-0.8906 -0.6723,-1.7848 -1.0103,-2.6826 -0.7638,-1.7571 -1.4502,-3.5505 -2.326,-5.2694 -0.7881,-1.7572 -1.7453,-3.4395 -2.642,-5.1519 l -0.1684,-0.3211 c 0.0689,0.1509 -0.2729,-0.5646 0.1331,0.2977 l -0.1098,-0.1888 -0.4399,-0.756 -0.8824,-1.5161 c -0.5891,-1.0125 -1.1805,-2.0286 -1.7737,-3.0482 l -0.4421,-0.7491 -0.4081,-0.5817 -0.8116,-1.1653 c -0.5315,-0.7784 -1.0647,-1.5594 -1.5996,-2.343 l -0.3956,-0.592 -0.4721,-0.6397 -0.9438,-1.2817 c -0.6268,-0.8549 -1.2555,-1.7126 -1.8862,-2.5729 -1.2918,-1.7136 -2.712,-3.4135 -4.0628,-5.1334 -1.3964,-1.7208 -2.8903,-3.4384 -4.3349,-5.1703 -5.9811,-6.9044 -12.6739,-13.926 -19.7406,-21.4159 -7.0613,-7.4904 -14.4717,-15.483 -21.7247,-24.4717 l -2.7034,-3.3998 -2.652,-3.5599 c -0.878,-1.2026 -1.7804,-2.3633 -2.6391,-3.6093 l -2.5651,-3.7686 -1.281,-1.8928 -0.3176,-0.4756 -0.5876,-0.9701 -0.5202,-0.8593 -2.0839,-3.4422 -1.0436,-1.724 c -0.1648,-0.2573 -0.3637,-0.6257 -0.5633,-0.9986 l -0.591,-1.0961 -2.3482,-4.4066 -1.1639,-2.2156 c -0.3599,-0.7232 -0.6692,-1.4161 -1.0057,-2.1269 l -1.9568,-4.2582 -0.9666,-2.1385 -0.8693,-2.1775 -1.7298,-4.3673 c -0.6012,-1.45 -1.0994,-2.9342 -1.5982,-4.4203 l -1.5051,-4.4604 c -0.9849,-2.9823 -1.7252,-6.0366 -2.5853,-9.0628 -3.1495,-12.1783 -4.9344,-24.746 -5.3362,-37.3791 -0.3519,-12.6312 0.6114,-25.3351 3.0808,-37.7514 1.2234,-6.2307 2.7585,-12.3064 4.7243,-18.4143 l 1.2938,-3.9253 1.6796,-4.6234 0.8494,-2.2963 0.8595,-2.1112 1.7423,-4.2038 c 2.4415,-5.4899 4.9699,-10.8761 7.6832,-15.9851 2.6991,-5.1527 5.539,-10.0513 8.3719,-14.8693 5.7441,-9.5379 11.6122,-18.4798 17.3156,-27.018 2.8059,-4.2154 5.5882,-8.3957 8.3444,-12.5365 0.675,-1.0245 1.3485,-2.0466 2.0203,-3.0661 0.6531,-1.0132 1.3046,-2.0239 1.9545,-3.032 0.6679,-1.0342 1.3341,-2.0657 1.9985,-3.0945 0.6162,-0.9735 1.2308,-1.9445 1.8438,-2.9128 1.2395,-1.9127 2.4168,-3.9458 3.6214,-5.8999 1.1645,-1.9715 2.3222,-3.9316 3.4729,-5.8799 1.0824,-1.9577 2.1965,-3.9023 3.2394,-5.8447 0.9904,-1.9504 2.0957,-3.8677 3.0292,-5.7992 7.787,-15.4035 12.9329,-30.4522 14.6645,-44.7363 0.2954,-1.7905 0.384,-3.5541 0.5186,-5.3134 0.0649,-0.8146 0.1297,-1.6246 0.1941,-2.4302 0.008,-0.9758 0.0153,-1.9462 0.023,-2.9109 -0.003,-0.7557 -0.007,-1.507 -0.0103,-2.2538 -0.0449,-0.8295 -0.0897,-1.6541 -0.1341,-2.4737 -0.1441,-1.6388 -0.2659,-3.2776 -0.4828,-4.8928 -0.4134,-3.2327 -1.0354,-6.3899 -1.8201,-9.4372 -0.7969,-3.0443 -1.7884,-5.9575 -2.8323,-8.7755 -2.1178,-5.6325 -4.875,-10.624 -7.7666,-15.0643 -2.9481,-4.3969 -6.1579,-8.1565 -9.3956,-11.2533 -6.5065,-6.1809 -13.0353,-9.7387 -17.7255,-11.627 -1.1687,-0.5056 -2.232,-0.8704 -3.1568,-1.195 -0.9217,-0.3463 -1.713,-0.5931 -2.3571,-0.7644 -1.2937,-0.3718 -1.9613,-0.5637 -1.9613,-0.5637 0,0 0.6948,-0.0524 2.0408,-0.1539 0.6795,-0.0643 1.5229,-0.1093 2.5291,-0.1054 1.0115,-0.0298 2.1861,-0.0236 3.513,0.0835 2.6683,0.1335 5.9801,0.5535 9.8094,1.5504 3.8396,0.9622 8.188,2.5367 12.8011,4.9415 9.2292,4.7586 19.4214,13.0932 27.8447,25.3841 4.244,6.1193 7.9128,13.2602 10.8074,21.3002 0.7291,2.0092 1.3785,4.0854 1.9628,6.2162 0.2705,1.0743 0.5428,2.1551 0.8167,3.2424 0.24,1.181 0.4815,2.3689 0.7243,3.5638 0.1818,0.9934 0.3647,1.9926 0.5486,2.9974 l 0.0669,0.3688 c -0.007,-0.1741 0.0474,0.4416 0.0503,0.4574 l 0.0254,0.2092 0.1014,0.839 0.2018,1.6883 c 0.2671,2.2602 0.5692,4.5599 0.6531,6.877 0.6024,9.2943 0.0267,19.0192 -1.5728,28.7831 -1.5962,9.7711 -4.2069,19.583 -7.5655,29.2553 -3.3541,9.7024 -7.4189,19.1963 -12.0202,28.6373 -0.5848,1.1936 -1.1711,2.3905 -1.7591,3.5905 -0.5662,1.1298 -1.1339,2.2626 -1.703,3.3982 -0.5966,1.1564 -1.1946,2.3157 -1.7941,3.4778 -0.6035,1.1425 -1.2087,2.2878 -1.8153,3.4359 -2.4267,4.5949 -4.886,9.1304 -7.3856,13.6494 -4.9462,9.0277 -9.9258,17.9388 -14.5172,26.8467 -2.2695,4.4391 -4.5128,8.887 -6.514,13.3353 -2.1035,4.435 -3.9264,8.877 -5.6752,13.3235 l -1.2116,3.3349 -0.6195,1.6635 -0.5014,1.5299 -1.0157,3.0425 -1.1301,3.8438 -0.5694,1.9561 -0.1425,0.4892 c 0.2486,-0.8255 0.0413,-0.1093 0.0843,-0.2396 l -0.0484,0.2082 -0.1941,0.8327 -0.7966,3.3259 -0.4135,1.6598 c -0.1251,0.557 -0.2136,1.1243 -0.3233,1.6858 l -0.6384,3.3757 c -1.5609,9.0338 -2.2654,18.3049 -1.9578,27.5763 0.2326,9.2737 1.5148,18.5314 3.6044,27.5387 0.6057,2.2288 1.0845,4.4966 1.7634,6.6984 l 0.9996,3.3077 c 0.3256,1.1052 0.6461,2.2121 1.0624,3.2814 l 1.1628,3.2402 0.5753,1.6218 0.663,1.5811 1.3168,3.1637 0.6455,1.571 0.6622,1.3954 1.2983,2.8046 0.3194,0.7043 c 0.1005,0.2289 0.2033,0.4612 0.3859,0.7797 l 0.9647,1.7694 1.9264,3.5327 0.4809,0.8819 0.1202,0.2204 c 0.3217,0.5499 -0.3026,-0.4986 -0.1976,-0.3263 l 0.2252,0.3684 0.8883,1.4807 1.7657,2.9656 c 0.5935,0.9887 1.278,1.968 1.9099,2.9527 l 1.9331,2.9507 2.0759,2.9411 c 5.504,7.8765 11.7534,15.7046 18.1176,23.7581 6.3667,8.0483 12.9004,16.3125 18.9473,25.108 1.4967,2.2405 3.0028,4.4202 4.4536,6.6721 1.4114,2.3126 2.8457,4.5504 4.1945,6.8809 0.6624,1.1799 1.3227,2.3563 1.981,3.5289 l 0.9807,1.7549 0.488,0.8751 0.4908,0.9636 c 0.6419,1.2912 1.2819,2.5782 1.9197,3.861 l 0.9395,1.9213 0.4652,0.9578 0.3507,0.8297 c 0.9839,2.3698 1.9608,4.7236 2.9311,7.0604 0.9458,2.5488 1.8592,5.0802 2.5999,7.6371 0.8241,2.531 1.4212,5.0965 2.0727,7.6139 0.2982,1.2655 0.5431,2.5362 0.8009,3.7959 0.2647,1.2585 0.5042,2.5137 0.684,3.7725 0.8819,5.0077 1.2861,9.9633 1.5456,14.7938 0.1258,4.8386 0.1621,9.5608 -0.2543,14.1465 -1.3097,18.3688 -6.5059,34.3346 -12.8936,47.2282 -6.4504,12.9208 -14.1722,22.7947 -21.2522,29.9437 -3.5663,3.565 -6.8987,6.5372 -9.991,8.8716 -0.7619,0.5891 -1.4954,1.1563 -2.1997,1.7009 -0.7298,0.5106 -1.4297,1.0002 -2.0988,1.4683 -0.6698,0.4594 -1.3089,0.8976 -1.917,1.3146 -0.6288,0.3936 -1.2256,0.767 -1.7892,1.1199 -2.2272,1.4427 -3.9949,2.3474 -5.1866,2.9832 -1.1878,0.637 -1.8008,0.9658 -1.8008,0.9658 z"
     id="path924"
     style="stroke-width:17.6766" /><path
     d="m 623.39305,700.04381 c 0,0 -0.23241,-0.45838 -0.68282,-1.34649 -0.44627,-0.88986 -1.12986,-2.20144 -1.97242,-3.93234 -0.85494,-1.7262 -1.89985,-3.85993 -3.09184,-6.38582 -1.20181,-2.52353 -2.55376,-5.43796 -4.00544,-8.73914 -1.48338,-3.28945 -3.00952,-6.98594 -4.61865,-11.05259 -1.62953,-4.06119 -3.19692,-8.54121 -4.75656,-13.40351 -1.5615,-4.863 -2.96086,-10.14788 -4.18428,-15.83031 -0.15046,-0.71163 -0.30169,-1.42779 -0.45385,-2.14852 -0.13109,-0.73029 -0.26301,-1.46516 -0.39585,-2.20455 -0.12412,-0.70525 -0.24905,-1.4148 -0.3748,-2.12861 -0.10906,-0.76935 -0.21894,-1.54322 -0.32941,-2.32168 -0.10704,-0.78086 -0.21451,-1.56619 -0.32275,-2.356 -0.085,-0.77725 -0.1706,-1.55888 -0.25653,-2.34481 -0.19132,-1.57186 -0.30393,-3.17182 -0.42406,-4.79197 -0.45243,-6.48097 -0.38331,-13.3316 0.41124,-20.45584 0.21435,-1.77912 0.40252,-3.58252 0.74889,-5.38586 0.16122,-0.9029 0.2987,-1.81393 0.48495,-2.72272 0.19738,-0.90836 0.39553,-1.82026 0.5945,-2.73571 l 0.30294,-1.37754 0.364,-1.37311 c 0.24572,-0.9184 0.49237,-1.84017 0.73983,-2.76528 0.26727,-0.9215 0.57595,-1.83804 0.86635,-2.76358 0.30044,-0.92287 0.5748,-1.85828 0.93711,-2.77237 0.6874,-1.83908 1.35986,-3.70467 2.20738,-5.52394 0.42107,-0.90934 0.78981,-1.84628 1.26384,-2.74193 0.46166,-0.90235 0.92473,-1.80749 1.38922,-2.71546 l 0.35095,-0.68157 0.088,-0.17054 0.24114,-0.40061 0.16929,-0.29274 0.679,-1.17317 c 0.45783,-0.78719 0.91697,-1.57672 1.37748,-2.36849 0.60082,-0.90983 1.20339,-1.82228 1.80755,-2.73729 l 0.91883,-1.37186 c 0.30835,-0.46553 0.61555,-0.84436 0.92488,-1.27164 0.62052,-0.83171 1.24257,-1.6657 1.86641,-2.50188 0.6173,-0.84562 1.30902,-1.6148 1.96576,-2.42878 0.67093,-0.79662 1.32484,-1.62516 2.03412,-2.38747 0.70797,-0.76624 1.41774,-1.53433 2.12904,-2.30428 0.70339,-0.78386 1.44786,-1.51403 2.19408,-2.24797 0.74648,-0.7352 1.49494,-1.47208 2.24497,-2.21061 0.77442,-0.70246 1.55042,-1.40656 2.32834,-2.11213 0.77791,-0.70917 1.56537,-1.40743 2.37721,-2.06576 6.41256,-5.42427 13.35747,-10.22737 20.57003,-14.49004 3.60451,-2.1578 7.28785,-4.12775 10.99601,-6.0772 0.93138,-0.46896 1.86368,-0.93858 2.79724,-1.40874 l 1.47247,-0.73252 1.34911,-0.65113 2.70799,-1.30547 2.85147,-1.33383 c 15.00686,-6.95604 29.96373,-12.85752 43.5787,-19.94171 3.41918,-1.74889 6.7185,-3.59408 9.93288,-5.51685 l 2.38508,-1.46352 0.29836,-0.1826 c -0.0368,0.0251 0.29264,-0.18521 -0.0446,0.0333 l 0.15914,-0.10513 0.63781,-0.41893 1.27743,-0.83443 c 1.84055,-1.16455 3.05218,-2.09348 4.49371,-3.08978 5.79046,-4.27281 11.24015,-9.02867 15.79311,-14.23706 9.24013,-10.38003 14.93664,-22.47954 15.63256,-34.76716 0.17267,-3.08465 0.0615,-6.19559 -0.31119,-9.29114 -0.38129,-3.09414 -1.01747,-6.17311 -1.87181,-9.2002 -0.8616,-3.02518 -1.95168,-5.99296 -3.20931,-8.88306 -1.26318,-2.88857 -2.72195,-5.6833 -4.29175,-8.39397 -3.15414,-5.41805 -6.9143,-10.37969 -10.95116,-14.86146 -2.01682,-2.24476 -4.11641,-4.36114 -6.27273,-6.34359 -0.54158,-0.49248 -1.07311,-0.99461 -1.62767,-1.46177 -0.51523,-0.44513 -1.02795,-0.88817 -1.53804,-1.32899 -1.2256,-0.96956 -2.42932,-1.94328 -3.61799,-2.91088 -4.36627,-3.43686 -9.10586,-6.57835 -13.66286,-9.38568 -4.56142,-2.84591 -9.14275,-5.20398 -13.45992,-7.45932 -8.70461,-4.3875 -16.62831,-7.80968 -23.19084,-10.59906 -6.61059,-2.75268 -11.80453,-4.91549 -15.3458,-6.39019 -3.54886,-1.50045 -5.44157,-2.30068 -5.44157,-2.30068 0,0 0.50889,0.0722 1.49477,0.21201 0.98512,0.14397 2.45251,0.33606 4.35406,0.63541 1.90301,0.29793 4.25372,0.6466 7.00486,1.12996 2.75862,0.452 5.91844,1.03236 9.45776,1.72113 7.07775,1.38616 15.65808,3.29943 25.41584,6.28026 1.22276,0.3605 2.45392,0.779 3.70663,1.19188 1.25173,0.4173 2.52556,0.8371 3.80189,1.32112 1.28207,0.47273 2.58263,0.95222 3.90102,1.43832 1.30902,0.52771 2.63571,1.06258 3.97975,1.60443 5.37119,2.25698 10.8373,4.91538 16.63829,8.28186 1.31376,0.78958 2.63827,1.59128 3.96643,2.41497 l 0.24965,0.15374 0.12493,0.0769 0.27109,0.18849 0.52679,0.35379 1.058,0.71158 c 0.71343,0.4688 1.40367,0.97393 2.10608,1.47241 2.79953,2.00634 5.56317,4.18503 8.26647,6.54348 5.40049,4.724 10.47697,10.24276 15.08039,16.49721 2.30313,3.12775 4.43616,6.47535 6.38675,10.01865 1.95517,3.54094 3.69965,7.29494 5.17746,11.24522 1.48496,3.94701 2.69141,8.09707 3.53064,12.41206 0.84453,4.31172 1.34257,8.78874 1.36226,13.34836 -0.0194,1.15347 -0.013,2.25343 -0.0663,3.46113 l -0.11594,1.86581 c -0.0411,0.61457 -0.0849,1.30029 -0.13442,1.71731 l -0.14425,1.43973 -0.0723,0.7209 -0.10622,0.69292 -0.0712,0.42777 c -0.19482,1.14153 -0.39013,2.28518 -0.58593,3.43091 -0.16836,1.15582 -0.49542,2.26614 -0.76062,3.39954 -0.29438,1.12254 -0.52963,2.27438 -0.8868,3.37777 -0.72129,2.2027 -1.37607,4.45815 -2.30406,6.58201 -1.6771,4.35181 -3.86643,8.43728 -6.21032,12.41534 -1.2454,1.92718 -2.45468,3.90631 -3.83167,5.72946 -0.67901,0.92035 -1.3285,1.87688 -2.04045,2.76723 l -2.14552,2.66953 c -0.70513,0.90558 -1.47039,1.73974 -2.22659,2.59053 -0.76411,0.84011 -1.50536,1.71322 -2.29516,2.52507 -1.58884,1.6106 -3.14973,3.27237 -4.82335,4.78406 -3.27428,3.14602 -6.75576,5.95117 -10.3654,8.71263 -7.25227,5.42264 -14.8171,9.90271 -22.49693,13.88534 -15.3613,7.93958 -30.91415,13.74814 -45.21145,19.88503 l -2.63587,1.1263 -2.74007,1.21087 -1.36973,0.60617 -1.22511,0.56154 -2.58529,1.18179 c -3.40369,1.6112 -6.77819,3.232 -10.0019,4.98363 -6.51566,3.42098 -12.59035,7.19854 -18.13721,11.30049 -5.57823,4.08023 -10.44118,8.63565 -14.68028,13.46194 -0.25685,0.29711 -0.55947,0.60775 -0.77933,0.89253 l -0.6855,0.85882 c -0.46388,0.57005 -0.92646,1.13858 -1.38763,1.70542 -0.51871,0.74108 -1.03585,1.47999 -1.55151,2.21676 l -0.77475,1.11218 -0.1934,0.27753 c 0.0375,-0.0672 -0.22084,0.34621 0.0601,-0.1155 l -0.0769,0.12412 -0.3077,0.49591 c -0.41315,0.66084 -0.82499,1.31971 -1.23542,1.97645 -0.4269,0.64834 -0.76094,1.35315 -1.14774,2.02386 -0.3586,0.68691 -0.78915,1.33389 -1.11589,2.0375 -0.34621,0.6946 -0.69133,1.38692 -1.0352,2.07683 -2.72228,5.55876 -4.54794,11.46574 -5.9587,17.3335 -1.41692,5.87981 -2.12904,11.79509 -2.52332,17.53868 -0.0915,1.43744 -0.19214,2.86364 -0.21353,4.28084 -0.0212,0.70911 -0.0423,1.41436 -0.0632,2.11567 -0.002,0.68621 -0.003,1.36854 -0.004,2.04694 0,0.68053 -1.7e-4,1.35713 -1.7e-4,2.02975 0.0265,0.72429 0.0528,1.44426 0.0789,2.15987 0.013,0.35778 0.026,0.71452 0.039,1.07011 l 0.0155,0.53307 0.007,0.26591 c 0.011,0.13017 -0.0111,-0.0279 -0.006,0.0346 l 0.007,0.12701 c 0.0358,0.67797 0.0716,1.35168 0.10715,2.02108 0.2779,5.3642 0.88647,10.47178 1.52663,15.29769 1.33324,9.64695 3.10325,18.09373 4.57615,25.06821 1.54093,6.9921 2.75147,12.48588 3.57696,16.23168 0.80868,3.7672 1.23989,5.77627 1.23989,5.77627 z"
     id="path926"
     style="stroke-width:17.6766" /><path
     d="m 564.78165,714.6187 c 0,0 -2.48402,-0.50906 -7.14156,-1.46346 -2.32043,-0.49039 -5.1583,-1.32492 -8.5396,-2.24449 -1.69283,-0.46483 -3.4399,-1.09317 -5.34952,-1.70781 -1.89517,-0.64041 -3.92984,-1.29572 -6.00868,-2.15166 -8.43646,-3.16726 -18.49175,-7.79679 -29.28903,-14.57065 -10.78869,-6.76452 -22.2924,-15.70138 -33.43826,-27.12604 -1.37655,-1.44042 -2.73377,-2.93129 -4.10099,-4.44409 -0.6842,-0.75733 -1.37181,-1.51843 -2.06268,-2.28317 -0.65775,-0.79333 -1.31862,-1.59052 -1.98259,-2.39141 -1.31929,-1.61097 -2.67302,-3.2266 -4.00097,-4.88913 -1.27409,-1.70655 -2.55952,-3.42828 -3.85606,-5.1646 -1.33025,-1.7198 -2.52469,-3.55548 -3.74944,-5.39679 -0.61145,-0.92254 -1.22519,-1.84879 -1.8416,-2.77867 l -0.46268,-0.69924 -0.23168,-0.35029 c -0.0102,-0.002 -0.3391,-0.61285 -0.24715,-0.43378 l -0.10099,-0.16803 -0.81007,-1.34722 c -1.07991,-1.80085 -2.16796,-3.61534 -3.26417,-5.44302 -1.10287,-2.08676 -2.2136,-4.18848 -3.33225,-6.30473 -1.17111,-2.1484 -2.09217,-4.24131 -3.09843,-6.38327 -0.49328,-1.07057 -0.98819,-2.14455 -1.48465,-3.22193 -0.51047,-1.07332 -0.91343,-2.19041 -1.37715,-3.29062 -0.88179,-2.21597 -1.84116,-4.42735 -2.66961,-6.69822 -0.79444,-2.28546 -1.59334,-4.58411 -2.39674,-6.89521 -3.01279,-9.31523 -5.37857,-19.08372 -6.99346,-29.17346 -1.65424,-10.0873 -2.37119,-20.51184 -2.29473,-31.08093 0.11262,-10.56916 1.07294,-21.29369 3.01442,-31.97554 l 0.80089,-3.99756 0.8609,-4.13937 0.87861,-3.64927 1.0213,-3.96348 c 1.32832,-5.05354 2.71925,-9.88274 4.00031,-14.52339 2.53929,-9.28388 4.55226,-17.85356 4.943,-25.65406 l 0.0396,-1.44516 0.0263,-0.72228 0.0142,-0.36118 c 0.007,0.28895 -0.005,-0.90202 0.0176,0.60226 l -0.008,-0.23523 -0.1318,-3.76322 c -0.008,-2.9098 -0.38667,-4.03379 -0.54573,-5.72692 l -0.0665,-0.6033 c -0.0211,-0.20137 -0.0312,-0.39259 -0.0976,-0.64486 l -0.31021,-1.42479 c -0.20603,-0.94973 -0.39488,-1.90272 -0.5787,-2.85779 -0.20752,-0.95277 -0.54269,-1.89332 -0.79889,-2.8429 -0.29264,-0.94499 -0.49816,-1.90399 -0.84608,-2.84313 -2.60753,-7.53733 -6.52041,-14.94257 -11.39628,-21.92766 -2.39356,-3.5171 -5.10918,-6.88803 -7.92585,-10.18034 -1.39182,-1.65987 -2.9227,-3.22979 -4.36712,-4.85225 -1.51198,-1.5757 -3.07902,-3.10806 -4.60627,-4.66554 -1.60756,-1.49798 -3.21038,-2.99144 -4.80779,-4.47994 -1.6666,-1.42798 -3.28142,-2.90403 -4.97315,-4.29244 -0.85105,-0.68976 -1.70076,-1.37826 -2.54855,-2.0655 l -1.26698,-1.03745 -0.15803,-0.12995 c -0.0846,-0.0675 0.19056,0.12899 -0.0107,-0.0187 l -0.3537,-0.27116 -0.70702,-0.54188 c -0.9421,-0.72214 -1.88227,-1.44294 -2.82067,-2.16226 l -1.39856,-1.06813 -1.31491,-0.9647 c -1.7613,-1.28972 -3.45539,-2.55951 -5.32707,-3.8722 -1.82827,-1.30528 -3.64098,-2.61027 -5.50577,-3.88325 -1.84591,-1.28068 -3.6881,-2.55529 -5.56305,-3.81189 -1.86886,-1.26987 -3.7281,-2.53322 -5.57763,-3.78975 -7.45414,-5.01716 -14.90116,-10.00417 -22.11977,-15.12261 -14.45574,-10.20917 -27.90863,-21.09958 -38.77037,-33.05967 -5.48769,-6.13062 -10.10322,-12.29355 -14.01136,-18.54724 -3.85213,-6.26577 -7.05584,-12.46537 -9.45955,-18.54695 -2.40778,-6.07336 -4.16818,-11.94416 -5.25024,-17.46935 -1.06975,-5.53066 -1.57333,-10.67844 -1.57185,-15.31027 -0.0708,-9.28166 1.66135,-16.33906 3.1503,-20.90132 0.75977,-2.28998 1.44805,-3.99148 1.96236,-5.11621 0.49602,-1.12496 0.752,-1.70551 0.752,-1.70551 0,0 -0.0805,0.62886 -0.2362,1.84724 -0.18151,1.206 -0.31798,3.02241 -0.46327,5.35033 -0.029,1.17229 -0.11861,2.46394 -0.0646,3.89473 0.0235,0.71436 -0.004,1.45242 0.0403,2.22656 0.0442,0.77037 0.09,1.57245 0.13758,2.40564 0.27902,3.32188 0.7923,7.09244 1.76456,11.19439 0.99589,4.09654 2.37696,8.53123 4.34599,13.1492 2.02653,4.59745 4.4575,9.43303 7.59276,14.27416 1.55999,2.42193 3.26439,4.85639 5.07472,7.30759 1.85102,2.42971 3.83302,4.86031 5.96238,7.26587 2.16218,2.38178 4.40282,4.78638 6.80868,7.13082 2.39141,2.32784 5.00805,4.6582 7.62935,6.80764 5.39531,4.45617 11.4637,8.80409 17.97566,12.95939 6.51463,4.18056 13.48779,8.26947 20.85235,12.38543 7.51378,4.12981 15.23248,8.3723 23.12196,12.70867 4.00415,2.20597 8.07869,4.49321 12.18442,6.909 4.12233,2.4 8.22332,4.86587 12.54265,7.6555 l 1.60645,1.02434 1.48761,0.98441 c 0.98492,0.6542 1.972,1.30973 2.96085,1.96652 l 0.74184,0.49283 0.3714,0.24656 c -0.0801,-0.0619 0.31584,0.22108 0.34859,0.24486 l 0.19677,0.13973 1.57467,1.12273 c 1.04805,0.75422 2.09817,1.50991 3.15007,2.26687 2.09565,1.52903 4.1327,3.16993 6.2119,4.76541 2.03987,1.65431 4.05772,3.36537 6.08166,5.0774 1.96303,1.80226 3.95422,3.58215 5.90429,5.43457 1.90206,1.91895 3.86398,3.77374 5.72366,5.7776 3.71173,4.00912 7.33508,8.19346 10.68778,12.72141 6.70903,9.01384 12.61843,19.17656 16.6906,30.51586 0.5307,1.40167 0.92596,2.8795 1.3873,4.32029 0.42845,1.45702 0.91928,2.88788 1.28098,4.37327 l 0.99204,4.49447 0.47557,2.25308 c 0.0865,0.35711 0.13973,0.79052 0.19722,1.21119 l 0.16944,1.26298 c 0.22197,1.68506 0.42734,3.37426 0.61552,5.06369 0.24479,1.88613 0.20923,2.86757 0.27961,4.18286 l 0.15158,3.76248 0.009,0.23515 c 0.0252,1.66105 0.003,0.62693 0.007,1.07272 l -0.0145,0.57989 -0.0312,1.15984 -0.0762,2.3191 c -0.71413,12.29905 -3.59704,23.36238 -6.49484,33.29816 -1.42197,4.76356 -2.84091,9.51778 -4.25584,14.258 l -0.92921,3.23735 -0.95847,3.56889 c -0.50484,2.12966 -1.00864,4.25561 -1.51155,6.37734 -1.87946,8.71852 -3.08405,17.54788 -3.61126,26.34308 -0.55003,8.79298 -0.46787,17.56299 0.32465,26.14904 0.76325,8.5896 2.12336,17.00051 3.95718,25.14922 0.50958,2.02557 1.01634,4.04016 1.52036,6.04321 0.51239,2.00385 1.15222,3.95518 1.7141,5.92466 0.30332,0.97618 0.54662,1.97415 0.89587,2.92736 0.33429,0.96018 0.66783,1.91732 1.00019,2.87135 0.66864,1.8968 1.27713,3.87554 2.00689,5.60453 0.70273,1.7959 1.40071,3.57942 2.09365,5.35027 0.87839,1.94169 1.7507,3.86939 2.6162,5.78256 l 0.64649,1.43293 0.0805,0.17878 c 0.1544,0.29361 -0.11995,-0.19819 -0.0613,-0.0895 l 0.16425,0.32399 0.32806,0.64738 c 0.43727,0.86401 0.87254,1.72462 1.30617,2.58174 0.88135,1.70832 1.67409,3.45694 2.63901,5.09021 0.92514,1.66224 1.8425,3.31047 2.75163,4.94411 0.98559,1.59371 1.96259,3.17326 2.93025,4.73807 0.48854,0.78311 0.97485,1.56252 1.45879,2.33822 0.51884,0.75243 1.03531,1.50124 1.54903,2.24642 1.02434,1.50117 2.03839,2.98745 3.04206,4.45846 8.35511,11.55646 17.34769,21.36429 26.04383,29.4018 8.69526,8.05588 17.11261,14.30408 24.32285,19.10913 1.77263,1.26424 3.53221,2.3151 5.18089,3.33448 1.65046,1.00855 3.17526,2.04905 4.64332,2.87276 1.47301,0.83682 2.83579,1.61119 4.08446,2.3205 1.25491,0.71651 2.38045,1.40753 3.45191,1.92614 4.21183,2.20582 6.45795,3.38234 6.45795,3.38234 z"
     id="path928"
     style="stroke-width:17.6766" /><path
     d="m 842.79835,709.13049 c 0,0 -0.4616,-0.5204 -1.3559,-1.5286 -0.4472,-0.5042 -1.0025,-1.1302 -1.6624,-1.8742 -0.6513,-0.7534 -1.3534,-1.6492 -2.1733,-2.6287 -3.2127,-3.9729 -7.723,-9.9868 -12.1947,-18.1189 -4.4285,-8.1495 -8.8345,-18.4444 -11.6925,-30.587 -1.3843,-6.0757 -2.5239,-12.5549 -2.9698,-19.3924 -0.2437,-3.413 -0.3297,-6.9031 -0.326,-10.4464 0.0927,-3.5483 0.2547,-7.1519 0.707,-10.7837 0.3821,-3.6355 1.0334,-7.2861 1.7624,-10.9502 0.8758,-3.6381 1.7355,-7.3164 3.0068,-10.9089 0.2768,-0.9095 0.6064,-1.8041 0.9546,-2.6938 0.3355,-0.8906 0.6723,-1.7848 1.0103,-2.6826 0.7638,-1.7571 1.4502,-3.5505 2.326,-5.2694 0.7881,-1.7572 1.7453,-3.4395 2.642,-5.1519 l 0.1684,-0.3211 c -0.0689,0.1509 0.2729,-0.5646 -0.1331,0.2977 l 0.1098,-0.1888 0.4399,-0.756 0.8824,-1.5161 c 0.5891,-1.0125 1.1805,-2.0286 1.7737,-3.0482 l 0.4421,-0.7491 0.4081,-0.5817 0.8116,-1.1653 c 0.5315,-0.7784 1.0647,-1.5594 1.5996,-2.343 l 0.3956,-0.592 0.4721,-0.6397 0.9438,-1.2817 c 0.6268,-0.8549 1.2555,-1.7126 1.8862,-2.5729 1.2918,-1.7136 2.712,-3.4135 4.0628,-5.1334 1.3964,-1.7208 2.8903,-3.4384 4.3349,-5.1703 5.9811,-6.9044 12.6739,-13.926 19.7406,-21.4159 7.0613,-7.4904 14.4717,-15.483 21.7247,-24.4717 l 2.7034,-3.3998 2.652,-3.5599 c 0.878,-1.2026 1.7804,-2.3633 2.6391,-3.6093 l 2.5651,-3.7686 1.281,-1.8928 0.3176,-0.4756 0.5876,-0.9701 0.5202,-0.8593 2.0839,-3.4422 1.0436,-1.724 c 0.1648,-0.2573 0.3637,-0.6257 0.5633,-0.9986 l 0.591,-1.0961 2.3482,-4.4066 1.1639,-2.2156 c 0.3599,-0.7232 0.6692,-1.4161 1.0057,-2.1269 l 1.9568,-4.2582 0.9666,-2.1385 0.8693,-2.1775 1.7298,-4.3673 c 0.6012,-1.45 1.0994,-2.9342 1.5982,-4.4203 l 1.5051,-4.4604 c 0.9849,-2.9823 1.7252,-6.0366 2.5853,-9.0628 3.1495,-12.1783 4.9344,-24.746 5.3362,-37.3791 0.3519,-12.6312 -0.6114,-25.3351 -3.0808,-37.7514 -1.2234,-6.2307 -2.7585,-12.3064 -4.7243,-18.4143 l -1.2938,-3.9253 -1.6796,-4.6234 -0.8494,-2.2963 -0.8595,-2.1112 -1.7423,-4.2038 c -2.4415,-5.4899 -4.9699,-10.8761 -7.6832,-15.9851 -2.6991,-5.1527 -5.539,-10.0513 -8.3719,-14.8693 -5.7441,-9.5379 -11.6122,-18.4798 -17.3156,-27.018 -2.8059,-4.2154 -5.5882,-8.3957 -8.3444,-12.5365 -0.675,-1.0245 -1.3485,-2.0466 -2.0203,-3.0661 -0.6531,-1.0132 -1.3046,-2.0239 -1.9545,-3.032 -0.6679,-1.0342 -1.3341,-2.0657 -1.9985,-3.0945 -0.6162,-0.9735 -1.2308,-1.9445 -1.8438,-2.9128 -1.2395,-1.9127 -2.4168,-3.9458 -3.6214,-5.8999 -1.1645,-1.9715 -2.3222,-3.9316 -3.4729,-5.8799 -1.0824,-1.9577 -2.1965,-3.9023 -3.2394,-5.8447 -0.9904,-1.9504 -2.0957,-3.8677 -3.0292,-5.7992 -7.787,-15.4035 -12.9329,-30.4522 -14.6645,-44.7363 -0.2954,-1.7905 -0.384,-3.5541 -0.5186,-5.3134 -0.0649,-0.8146 -0.1297,-1.6246 -0.1941,-2.4302 -0.008,-0.9758 -0.0153,-1.9462 -0.023,-2.9109 0.003,-0.7557 0.007,-1.507 0.0103,-2.2538 0.0449,-0.8295 0.0897,-1.6541 0.1341,-2.4737 0.1441,-1.6388 0.2659,-3.2776 0.4828,-4.8928 0.4134,-3.2327 1.0354,-6.3899 1.8201,-9.4372 0.7969,-3.0443 1.7884,-5.9575 2.8323,-8.7755 2.1178,-5.6325 4.875,-10.624 7.7666,-15.0643 2.9481,-4.39689 6.1579,-8.15649 9.3956,-11.25329 6.5065,-6.1809 13.0353,-9.7387 17.7255,-11.627 1.1687,-0.5056 2.232,-0.8704 3.1568,-1.195 0.9217,-0.346299 1.713,-0.593099 2.3571,-0.764399 1.2937,-0.3718 1.9613,-0.5637 1.9613,-0.5637 0,0 -0.6948,-0.0524 -2.0408,-0.1539 -0.6795,-0.0643 -1.5229,-0.1093 -2.5291,-0.1054 -1.0115,-0.0298 -2.1861,-0.0236 -3.513,0.0835 -2.6683,0.1335 -5.9801,0.5535 -9.8094,1.550399 -3.8396,0.9622 -8.188,2.5367 -12.8011,4.9415 -9.2292,4.7586 -19.4214,13.0932 -27.8447,25.38409 -4.244,6.1193 -7.9128,13.2602 -10.8074,21.3002 -0.7291,2.0092 -1.3785,4.0854 -1.9628,6.2162 -0.2705,1.0743 -0.5428,2.1551 -0.8167,3.2424 -0.24,1.181 -0.4815,2.3689 -0.7243,3.5638 -0.1818,0.9934 -0.3647,1.9926 -0.5486,2.9974 l -0.0669,0.3688 c 0.007,-0.1741 -0.0474,0.4416 -0.0503,0.4574 l -0.0254,0.2092 -0.1014,0.839 -0.2018,1.6883 c -0.2671,2.2602 -0.5692,4.5599 -0.6531,6.877 -0.6024,9.2943 -0.0267,19.0192 1.5728,28.7831 1.5962,9.7711 4.2069,19.583 7.5655,29.2553 3.3541,9.7024 7.4189,19.1963 12.0202,28.6373 0.5848,1.1936 1.1711,2.3905 1.7591,3.5905 0.5662,1.1298 1.1339,2.2626 1.703,3.3982 0.5966,1.1564 1.1946,2.3157 1.7941,3.4778 0.6035,1.1425 1.2087,2.2878 1.8153,3.4359 2.4267,4.5949 4.886,9.1304 7.3856,13.6494 4.9462,9.0277 9.9258,17.9388 14.5172,26.8467 2.2695,4.4391 4.5128,8.887 6.514,13.3353 2.1035,4.435 3.9264,8.877 5.6752,13.3235 l 1.2116,3.3349 0.6195,1.6635 0.5014,1.5299 1.0157,3.0425 1.1301,3.8438 0.5694,1.9561 0.1425,0.4892 c -0.2486,-0.8255 -0.0413,-0.1093 -0.0843,-0.2396 l 0.0484,0.2082 0.1941,0.8327 0.7966,3.3259 0.4135,1.6598 c 0.1251,0.557 0.2136,1.1243 0.3233,1.6858 l 0.6384,3.3757 c 1.5609,9.0338 2.2654,18.3049 1.9578,27.5763 -0.2326,9.2737 -1.5148,18.5314 -3.6044,27.5387 -0.6057,2.2288 -1.0845,4.4966 -1.7634,6.6984 l -0.9996,3.3077 c -0.3256,1.1052 -0.6461,2.2121 -1.0624,3.2814 l -1.1628,3.2402 -0.5753,1.6218 -0.663,1.5811 -1.3168,3.1637 -0.6455,1.571 -0.6622,1.3954 -1.2983,2.8046 -0.3194,0.7043 c -0.1005,0.2289 -0.2033,0.4612 -0.3859,0.7797 l -0.9647,1.7694 -1.9264,3.5327 -0.4809,0.8819 -0.1202,0.2204 c -0.3217,0.5499 0.3026,-0.4986 0.1976,-0.3263 l -0.2252,0.3684 -0.8883,1.4807 -1.7657,2.9656 c -0.5935,0.9887 -1.278,1.968 -1.9099,2.9527 l -1.9331,2.9507 -2.0759,2.9411 c -5.504,7.8765 -11.7534,15.7046 -18.1176,23.7581 -6.3667,8.0483 -12.9004,16.3125 -18.9473,25.108 -1.4967,2.2405 -3.0028,4.4202 -4.4536,6.6721 -1.4114,2.3126 -2.8457,4.5504 -4.1945,6.8809 -0.6624,1.1799 -1.3227,2.3563 -1.981,3.5289 l -0.9807,1.7549 -0.488,0.8751 -0.4908,0.9636 c -0.6419,1.2912 -1.2819,2.5782 -1.9197,3.861 l -0.9395,1.9213 -0.4652,0.9578 -0.3507,0.8297 c -0.9839,2.3698 -1.9608,4.7236 -2.9311,7.0604 -0.9458,2.5488 -1.8592,5.0802 -2.5999,7.6371 -0.8241,2.531 -1.4212,5.0965 -2.0727,7.6139 -0.2982,1.2655 -0.5431,2.5362 -0.8009,3.7959 -0.2647,1.2585 -0.5042,2.5137 -0.684,3.7725 -0.8819,5.0077 -1.2861,9.9633 -1.5456,14.7938 -0.1258,4.8386 -0.1621,9.5608 0.2543,14.1465 1.3097,18.3688 6.5059,34.3346 12.8936,47.2282 6.4504,12.9208 14.1722,22.7947 21.2522,29.9437 3.5663,3.565 6.8987,6.5372 9.991,8.8716 0.7619,0.5891 1.4954,1.1563 2.1997,1.7009 0.7298,0.5106 1.4297,1.0002 2.0988,1.4683 0.6698,0.4594 1.3089,0.8976 1.917,1.3146 0.6288,0.3936 1.2256,0.767 1.7892,1.1199 2.2272,1.4427 3.9949,2.3474 5.1866,2.9832 1.1878,0.637 1.8008,0.9658 1.8008,0.9658 z"
     id="path930"
     style="stroke-width:17.6766" /><path
     d="m 225.05554,705.35441 c 0,0 0.426,-0.8402 1.2516,-2.4681 0.818,-1.6311 2.071,-4.0352 3.6154,-7.2079 1.5671,-3.1641 3.4824,-7.0752 5.6673,-11.7051 2.2029,-4.6256 4.681,-9.9677 7.3419,-16.0187 2.719,-6.0295 5.5164,-12.8051 8.4659,-20.2592 2.9869,-7.4441 5.8599,-15.6559 8.7187,-24.5684 2.8622,-8.9138 5.4272,-18.6009 7.6697,-29.0167 0.2758,-1.3044 0.553,-2.6171 0.8319,-3.9382 0.2403,-1.3386 0.4821,-2.6856 0.7256,-4.0409 0.2275,-1.2927 0.4565,-2.5933 0.687,-3.9017 0.1999,-1.4102 0.4013,-2.8287 0.6038,-4.2556 0.1962,-1.4313 0.3932,-2.8708 0.5916,-4.3185 0.1558,-1.4247 0.3127,-2.8574 0.4702,-4.298 0.3507,-2.8812 0.5571,-5.8139 0.7773,-8.7836 0.8293,-11.8795 0.7026,-24.4366 -0.7538,-37.4952 -0.3929,-3.2611 -0.7378,-6.5667 -1.3727,-9.8722 -0.2955,-1.655 -0.5475,-3.3249 -0.8889,-4.9907 -0.3618,-1.665 -0.725,-3.3365 -1.0897,-5.0145 l -0.5553,-2.525 -0.6672,-2.5169 c -0.4504,-1.6834 -0.9025,-3.373 -1.3561,-5.0687 -0.4899,-1.6891 -1.0557,-3.3691 -1.588,-5.0656 -0.5507,-1.6916 -1.0536,-3.4062 -1.7177,-5.0817 -1.26,-3.371 -2.4926,-6.7906 -4.0461,-10.1253 -0.7718,-1.6668 -1.4477,-3.3842 -2.3166,-5.0259 -0.8462,-1.654 -1.695,-3.3131 -2.5464,-4.9774 l -0.6433,-1.2493 -0.1613,-0.3126 -0.442,-0.7343 -0.3103,-0.5366 -1.2446,-2.1504 c -0.8392,-1.4429 -1.6808,-2.8901 -2.5249,-4.3414 -1.1013,-1.6677 -2.2058,-3.3402 -3.3132,-5.0174 l -1.6842,-2.5146 c -0.5652,-0.8533 -1.1283,-1.5477 -1.6953,-2.3309 -1.1374,-1.5245 -2.2776,-3.0532 -3.4211,-4.5859 -1.1315,-1.55 -2.3994,-2.9599 -3.6032,-4.4519 -1.2298,-1.4602 -2.4284,-2.9789 -3.7285,-4.3762 -1.2977,-1.4045 -2.5987,-2.8124 -3.9025,-4.2237 -1.2893,-1.4368 -2.6539,-2.7752 -4.0217,-4.1205 -1.3683,-1.3476 -2.7402,-2.6983 -4.115,-4.052 -1.4195,-1.2876 -2.8419,-2.5782 -4.2678,-3.8715 -1.4259,-1.2999 -2.8693,-2.5798 -4.3574,-3.7865 -11.7541,-9.9426 -24.484,-18.7466 -37.7045,-26.56 -6.607,-3.9552 -13.3585,-7.5661 -20.1555,-11.1394 -1.7072,-0.8596 -3.4161,-1.7204 -5.1273,-2.5822 l -2.699,-1.3427 -2.4729,-1.1935 -4.9637,-2.3929 -5.2267,-2.4449 c -27.5073,-12.7503 -54.922999,-23.5676 -79.878998,-36.5528 -6.2673,-3.2057 -12.314901,-6.5879 -18.206801,-10.1123 l -4.3718,-2.6826 -0.5469,-0.3347 c 0.0674,0.046 -0.5364,-0.3395 0.0817,0.061 l -0.2917,-0.1927 -1.1691,-0.7679 -2.3415,-1.5295 c -3.3737,-2.1346 -5.5946,-3.8373 -8.2369,-5.6635 -10.6137996,-7.832 -20.6029996,-16.5494 -28.9485,-26.0963 -16.937,-19.0264 -27.3786,-41.2046 -28.6542,-63.7276 -0.3165,-5.6541 -0.1128,-11.3564 0.5704,-17.0305 0.6989,-5.6715 1.865,-11.3152 3.431,-16.8638 1.5793,-5.5451 3.5774,-10.985 5.8826,-16.2825 2.3154,-5.2947 4.9893,-10.4174 7.8667,-15.386 5.7815,-9.9312 12.6738,-19.0258 20.0733004,-27.2408 3.69679999,-4.1146 7.5453,-7.9939 11.4978,-11.6277 0.9927,-0.9027 1.9669996,-1.8231 2.9834996,-2.6794 0.9444,-0.8159 1.8842,-1.628 2.8192,-2.436 2.2465,-1.7772 4.4529,-3.562 6.6317,-5.3356 8.0033,-6.299705 16.6909,-12.058005 25.043801,-17.203805 8.361,-5.2165 16.758499,-9.5388 24.671799,-13.6728 15.9554,-8.0422 30.479399,-14.315 42.508399,-19.4279 12.1171,-5.0456 21.6375,-9.01 28.1286,-11.7131 6.505,-2.7503 9.9743,-4.2171 9.9743,-4.2171 0,0 -0.9328,0.1323 -2.7399,0.3886 -1.8057,0.2639 -4.4954,0.616 -7.9809,1.1647 -3.4882,0.5461 -7.797,1.1852 -12.8398,2.0712 -5.0565,0.8285 -10.8484,1.8923 -17.3359,3.1548 -12.973399,2.5408 -28.700999,6.0478 -46.586799,11.5116 -2.2413,0.6608 -4.497999,1.4279 -6.794199,2.1847 -2.2944,0.7649 -4.6293,1.5344 -6.9688,2.4216 -2.35,0.8665 -4.7339,1.7454 -7.1505,2.6364 -2.399401,0.9673 -4.831201,1.9477 -7.294801,2.9409 -9.8453,4.137 -19.8646,9.0098 -30.4976996,15.1805 -2.4081,1.4473 -4.83590001,2.9168 -7.2704,4.4266 l -0.4576,0.2818 -0.229,0.141 -0.4969,0.3455 -0.9656,0.6485 -1.9393,1.3043 c -1.3077,0.8593 -2.5729,1.7852 -3.8604004,2.6989 -5.1315,3.6776 -10.1972,7.6711 -15.1523,11.9941 -9.899,8.659005 -19.2041,18.774805 -27.642097,30.239105 -4.2216,5.7331 -8.1314,11.8692 -11.7068,18.364 -3.5838,6.4905 -6.7814,13.3715 -9.4902,20.6123 -2.7219,7.2348 -4.9333,14.8418 -6.4716,22.7511 -1.548,7.9033 -2.4609,16.1096 -2.497,24.4673 0.0355,2.1143 0.0239,4.1305 0.1215,6.3442 l 0.2125,3.42 c 0.0753,1.1265 0.1557,2.3834 0.2464,3.1478 l 0.2644,2.639 0.1325,1.3214 0.1947,1.2701 0.1305,0.7841 c 0.3571,2.0924 0.7151,4.1887 1.074,6.2888 0.3086,2.1186 0.9081,4.1538 1.3942,6.2313 0.5396,2.0576 0.9708,4.1689 1.6255,6.1914 1.3221,4.0375 2.5223,8.1717 4.2233,12.0647 3.0741,7.9768 7.0871,15.4654 11.3834,22.7571 2.2828,3.5325 4.4994,7.1602 7.0234,10.502 1.2446,1.687 2.4351,3.4403 3.7401,5.0723 l 3.932697,4.8932 c 1.2925,1.6599 2.6952,3.1889 4.0813,4.7484 1.4006,1.5399 2.7593,3.1403 4.207,4.6284 2.9123,2.9522 5.7734,5.9982 8.8411,8.7691 6.0017,5.7666 12.3832,10.9084 18.9996,15.9701 13.2933004,9.9396 27.1595,18.1515 41.2365,25.4516 28.157001,14.5531 56.6651,25.2001 82.871799,36.4489 l 4.8315,2.0645 5.0225,2.2195 2.5107,1.1111 2.2456,1.0293 4.7388,2.1662 c 6.2389,2.9533 12.4243,5.9242 18.3333,9.1349 11.9431,6.2706 23.0779,13.1948 33.2452,20.7136 10.2248,7.479 19.1385,15.829 26.9087,24.6755 0.4708,0.5446 1.0255,1.114 1.4285,1.636 l 1.2565,1.5742 c 0.8503,1.0449 1.6982,2.087 2.5435,3.126 0.9508,1.3584 1.8987,2.7128 2.8439,4.0633 l 1.4201,2.0386 0.3545,0.5087 c -0.0688,-0.1231 0.4048,0.6346 -0.1101,-0.2117 l 0.1409,0.2275 0.564,0.909 c 0.7573,1.2113 1.5122,2.419 2.2645,3.6228 0.7825,1.1884 1.3948,2.4803 2.1038,3.7097 0.6573,1.2591 1.4465,2.445 2.0454,3.7347 0.6346,1.2732 1.2672,2.5422 1.8975,3.8068 4.9899,10.1891 8.3363,21.0165 10.9222,31.772 2.5972,10.7776 3.9025,21.6202 4.6252,32.1481 0.1677,2.6348 0.3522,5.249 0.3914,7.8467 0.0389,1.2998 0.0776,2.5925 0.1159,3.878 0.003,1.2578 0.005,2.5085 0.008,3.752 0,1.2474 3e-4,2.4876 3e-4,3.7205 -0.0485,1.3276 -0.0967,2.6473 -0.1447,3.959 -0.0238,0.6558 -0.0477,1.3097 -0.0715,1.9615 l -0.0285,0.9771 -0.0136,0.4874 c -0.0201,0.2386 0.0203,-0.0511 0.011,0.0634 l -0.0125,0.2328 c -0.0657,1.2427 -0.1313,2.4776 -0.1964,3.7046 -0.5094,9.8325 -1.6249,19.1946 -2.7983,28.0404 -2.4438,17.6827 -5.6882,33.1655 -8.388,45.9496 -2.8245,12.8164 -5.0434,22.8864 -6.5565,29.7524 -1.4823,6.9052 -2.2727,10.5878 -2.2727,10.5878 z"
     id="path932"
     style="stroke-width:17.6766" /><path
     d="m 425.84622,693.37631 c 0,0 3.3528,-0.6871 9.6393,-1.9753 3.132,-0.6619 6.9624,-1.7883 11.5263,-3.0295 2.2849,-0.6274 4.643,-1.4755 7.2205,-2.3051 2.558,-0.8644 5.3043,-1.7489 8.1102,-2.9042 11.3871,-4.275 24.9592,-10.5237 39.5328,-19.6667 14.562,-9.1304 30.0891,-21.1929 45.1332,-36.6133 1.858,-1.9442 3.6899,-3.9565 5.5353,-5.9984 0.9235,-1.0222 1.8516,-2.0495 2.7841,-3.0817 0.8878,-1.0708 1.7798,-2.1468 2.676,-3.2278 1.7807,-2.1744 3.6079,-4.3551 5.4003,-6.5991 1.7197,-2.3034 3.4547,-4.6273 5.2047,-6.9709 1.7955,-2.3213 3.4077,-4.799 5.0608,-7.2843 0.8253,-1.2452 1.6537,-2.4954 2.4857,-3.7505 l 0.6245,-0.9438 0.3127,-0.4728 c 0.0137,-0.003 0.4577,-0.8272 0.3336,-0.5855 l 0.1363,-0.2268 1.0934,-1.8184 c 1.4576,-2.4307 2.9262,-4.8798 4.4058,-7.3467 1.4886,-2.8166 2.9878,-5.6534 4.4977,-8.5098 1.5807,-2.8998 2.8239,-5.7247 4.1821,-8.6158 0.6658,-1.445 1.3338,-2.8946 2.0039,-4.3488 0.689,-1.4487 1.2329,-2.9565 1.8588,-4.4415 1.1902,-2.991 2.4851,-5.9758 3.6033,-9.0409 1.0723,-3.0848 2.1506,-6.1874 3.235,-9.3068 4.0665,-12.5732 7.2597,-25.7582 9.4394,-39.3768 2.2328,-13.6153 3.2005,-27.6858 3.0973,-41.9514 -0.152,-14.2657 -1.4482,-28.7411 -4.0687,-43.1589 l -1.081,-5.3957 -1.162,-5.5871 -1.1859,-4.9256 -1.3785,-5.3497 c -1.7929,-6.821 -3.6703,-13.3392 -5.3994,-19.6029 -3.4274,-12.5309 -6.1444,-24.0978 -6.6718,-34.6265 l -0.0535,-1.9506 -0.0355,-0.9749 -0.0192,-0.4875 c -0.009,0.39 0.007,-1.2175 -0.0238,0.8129 l 0.0113,-0.3175 0.1779,-5.0794 c 0.0114,-3.9275 0.5219,-5.4446 0.7366,-7.7299 l 0.0898,-0.8143 c 0.0285,-0.2718 0.0421,-0.5299 0.1317,-0.8704 l 0.4187,-1.9231 c 0.2781,-1.2819 0.533,-2.5682 0.7811,-3.8573 0.2801,-1.286 0.7325,-2.5555 1.0783,-3.8372 0.395,-1.2755 0.6724,-2.5699 1.142,-3.8375 3.5195,-10.1735 8.8009,-20.1687 15.3821,-29.5968 3.2307,-4.7472 6.8961,-9.2971 10.6979,-13.7409 1.8786,-2.2404 3.9449,-4.3594 5.8945,-6.5493 2.0408,-2.1268 4.1559,-4.1951 6.2173,-6.2973 2.1698,-2.0219 4.3332,-4.0377 6.4893,-6.0468 2.2495,-1.9274 4.4291,-3.9197 6.7125,-5.7937 1.1487,-0.931 2.2956,-1.8603 3.4399,-2.7879 l 1.7101,-1.4003 0.2133,-0.1754 c 0.1142,-0.0911 -0.2572,0.1741 0.0145,-0.0253 l 0.4774,-0.366 0.9543,-0.7314 c 1.2716,-0.9747 2.5406,-1.9476 3.8072,-2.9185 l 1.8877,-1.4417 1.7748,-1.3021 c 2.3773,-1.7408 4.6639,-3.4547 7.1902,-5.2265 2.4677,-1.7618 4.9144,-3.5232 7.4314,-5.2414 2.4915,-1.7286 4.978,-3.449 7.5087,-5.1451 2.5225,-1.714 5.032,-3.4192 7.5284,-5.1152 10.0612,-6.7719 20.1128,-13.5031 29.8561,-20.4117 19.5116,-13.7798 37.6696,-28.4791 52.3302,-44.6222 7.407,-8.2748 13.6368,-16.5932 18.9118,-25.0341 5.1994,-8.4572 9.5236,-16.825096 12.768,-25.033696 3.2499,-8.197502 5.626,-16.121602 7.0865,-23.579212 1.4439,-7.465 2.1236,-14.413198 2.1216,-20.664998 0.0956,-12.5279 -2.2424,-22.0536 -4.2521,-28.2115 -1.0255,-3.0909 -1.9545,-5.3875 -2.6487,-6.9055996 -0.6695,-1.5184 -1.015,-2.302 -1.015,-2.302 0,0 0.1087,0.8488 0.3188,2.4933 0.245,1.6277996 0.4292,4.0794996 0.6253,7.2215996 0.0392,1.5823 0.1601,3.3257 0.0872,5.2569 -0.0317,0.9642 0.006,1.9604 -0.0544,3.0053 -0.0596,1.0398 -0.1215,2.1224 -0.1857,3.247 -0.3766,4.4837 -1.0694,9.573 -2.3817,15.1096 -1.3442,5.5293 -3.2083,11.515 -5.866,17.748098 -2.7353,6.2054 -6.0165,12.73221 -10.2483,19.26651 -2.1056,3.269 -4.4061,6.554902 -6.8496,9.863402 -2.4984,3.2795 -5.1736,6.5602 -8.0477,9.8071 -2.9184,3.214796 -5.9427,6.460396 -9.19,9.624796 -3.2278,3.142 -6.7596,6.2874 -10.2977,9.1886 -7.2823,6.0147 -15.4731,11.8833 -24.2626,17.4919 -8.7931,5.6427 -18.2051,11.1617 -28.1454,16.7172 -10.1417,5.5742 -20.56,11.3005 -31.2088,17.1535 -5.4046,2.9775 -10.9042,6.0647 -16.4459,9.3254 -5.5641,3.2394 -11.0994,6.5677 -16.9294,10.333 l -2.1683,1.3826 -2.0079,1.3287 c -1.3294,0.883 -2.6617,1.7678 -3.9964,2.6543 l -1.0013,0.6652 -0.5013,0.3328 c 0.1081,-0.0836 -0.4263,0.2984 -0.4705,0.3305 l -0.2656,0.1886 -2.1254,1.5154 c -1.4146,1.018 -2.832,2.038 -4.2518,3.0597 -2.8286,2.0638 -5.5781,4.2786 -8.3845,6.4321 -2.7533,2.2329 -5.4769,4.5424 -8.2087,6.8532 -2.6496,2.4326 -5.3372,4.835 -7.9693,7.3353 -2.5673,2.5901 -5.2154,5.0936 -7.7255,7.7983 -5.0099,5.4113 -9.9005,11.0591 -14.4258,17.1707 -9.0555,12.1664 -17.0317,25.8835 -22.5281,41.1887 -0.7163,1.8919 -1.2498,3.8866 -1.8725,5.8313 -0.5783,1.9666 -1.2408,3.8979 -1.729,5.9028 l -1.339,6.0664 -0.6419,3.0411 c -0.1168,0.482 -0.1886,1.067 -0.2662,1.6348 l -0.2287,1.7047 c -0.2996,2.2744 -0.5768,4.5544 -0.8308,6.8347 -0.3304,2.5458 -0.2824,3.8705 -0.3774,5.6458 l -0.2046,5.0784 -0.0128,0.3174 c -0.034,2.242 -0.004,0.8462 -0.009,1.4479 l 0.0195,0.7827 0.0421,1.5655 0.1029,3.1302 c 0.9639,16.6006 4.8551,31.5333 8.7664,44.9441 1.9193,6.4296 3.8345,12.8466 5.7443,19.2447 l 1.2542,4.3696 1.2937,4.8171 c 0.6814,2.8745 1.3614,5.744 2.0402,8.6078 2.5368,11.7678 4.1627,23.6852 4.8743,35.5565 0.7424,11.8683 0.6315,23.7056 -0.4382,35.2946 -1.0302,11.5938 -2.866,22.9464 -5.3412,33.9451 -0.6878,2.734 -1.3718,5.4532 -2.0521,8.1568 -0.6916,2.7047 -1.5552,5.3385 -2.3136,7.9968 -0.4094,1.3176 -0.7378,2.6646 -1.2092,3.9512 -0.4512,1.296 -0.9014,2.5879 -1.35,3.8756 -0.9025,2.5602 -1.7238,5.231 -2.7088,7.5647 -0.9485,2.424 -1.8906,4.8313 -2.8259,7.2215 -1.1856,2.6208 -2.363,5.2227 -3.5312,7.805 l -0.8726,1.9341 -0.1087,0.2413 c -0.2084,0.3963 0.1619,-0.2675 0.0828,-0.1208 l -0.2217,0.4373 -0.4428,0.8738 c -0.5902,1.1662 -1.1777,2.3278 -1.763,3.4847 -1.1896,2.3058 -2.2596,4.666 -3.562,6.8705 -1.2487,2.2436 -2.4869,4.4683 -3.714,6.6733 -1.3303,2.1511 -2.649,4.2831 -3.9551,6.3952 -0.6594,1.057 -1.3158,2.109 -1.969,3.156 -0.7003,1.0156 -1.3974,2.0263 -2.0908,3.0321 -1.3826,2.0262 -2.7513,4.0323 -4.106,6.0178 -11.2773,15.5983 -23.415,28.8364 -35.1526,39.685 -11.7364,10.8734 -23.0977,19.3069 -32.8297,25.7925 -2.3926,1.7064 -4.7676,3.1248 -6.9929,4.5007 -2.2277,1.3613 -4.2858,2.7657 -6.2673,3.8775 -1.9882,1.1295 -3.8276,2.1747 -5.513,3.1321 -1.6938,0.9671 -3.213,1.8998 -4.6592,2.5998 -5.6849,2.9773 -8.7166,4.5653 -8.7166,4.5653 z"
     id="path934"
     style="stroke-width:17.6766" /></g></g></g></g></svg>
